<?xml version="1.0" encoding="utf-8"?>
<!-- Generator: Adobe Illustrator 18.0.0, SVG Export Plug-In . SVG Version: 6.00 Build 0)  -->
<!DOCTYPE svg PUBLIC "-//W3C//DTD SVG 1.1//EN" "http://www.w3.org/Graphics/SVG/1.1/DTD/svg11.dtd">
<svg version="1.1" id="Layer_1" xmlns="http://www.w3.org/2000/svg" xmlns:xlink="http://www.w3.org/1999/xlink" x="0px" y="0px"
	 width="56.823px" height="56.823px" viewBox="0 0 56.823 56.823" enable-background="new 0 0 56.823 56.823" xml:space="preserve">
<g>
	<g>
		<path fill="#EFC94C" d="M28.412,56.573C12.883,56.573,0.25,43.94,0.25,28.412C0.25,12.883,12.883,0.25,28.412,0.25
			s28.161,12.633,28.161,28.162C56.573,43.94,43.94,56.573,28.412,56.573z"/>
		<g>
			<path fill="#E5B428" d="M28.412,0.5c15.391,0,27.912,12.521,27.912,27.912S43.802,56.323,28.412,56.323S0.5,43.802,0.5,28.412
				S13.021,0.5,28.412,0.5 M28.412,0C12.72,0,0,12.72,0,28.412s12.72,28.412,28.412,28.412s28.412-12.72,28.412-28.412
				S44.103,0,28.412,0L28.412,0z"/>
		</g>
	</g>
	<g>
		<path fill="#333333" d="M36.812,19.668h-2.116v-0.551c0-1.084-0.879-1.963-1.963-1.963h-0.936
			c-0.028-1.914-1.587-3.452-3.501-3.452c-1.914,0-3.475,1.538-3.501,3.452h-0.941c-1.081,0-1.959,0.879-1.959,1.963v0.551h-2.121
			c-0.699,0-1.291,0.57-1.291,1.269v20.914c0,0.7,0.592,1.269,1.291,1.269h17.042c0.699,0,1.291-0.569,1.291-1.269V20.937
			C38.107,20.239,37.515,19.668,36.812,19.668L36.812,19.668z M28.295,15.536c0.901,0,1.64,0.722,1.667,1.618h-3.335
			C26.654,16.258,27.39,15.536,28.295,15.536L28.295,15.536z M36.488,41.565H20.096v-20.34h1.798v1.434h12.801v-1.434h1.792V41.565z
			 M36.488,41.565"/>
		<path fill="#333333" d="M34.221,25.353h-4.129c-0.65,0-1.178,0.483-1.178,1.134c0,0.65,0.529,1.138,1.178,1.138h4.129
			c0.649,0,1.174-0.489,1.174-1.138C35.394,25.836,34.87,25.353,34.221,25.353L34.221,25.353z M34.221,25.353"/>
		<path fill="#333333" d="M24.126,26.428l-0.887-0.691c-0.216-0.17-0.534-0.143-0.717,0.063l-0.512,0.565
			c-0.094,0.112-0.143,0.256-0.134,0.404c0.014,0.143,0.085,0.278,0.202,0.367l1.542,1.22c0.376,0.296,0.91,0.264,1.245-0.072
			l2.708-2.707c0.13-0.13,0.202-0.31,0.202-0.493c0-0.188-0.072-0.363-0.202-0.493l-0.31-0.309c-0.273-0.273-0.717-0.273-0.986,0
			L24.126,26.428z M24.126,26.428"/>
		<path fill="#333333" d="M34.221,30.614h-4.129c-0.65,0-1.178,0.489-1.178,1.139c0,0.649,0.529,1.134,1.178,1.134h4.129
			c0.649,0,1.174-0.484,1.174-1.134C35.394,31.103,34.87,30.614,34.221,30.614L34.221,30.614z M34.221,30.614"/>
		<path fill="#333333" d="M24.126,31.695l-0.887-0.691c-0.216-0.17-0.534-0.143-0.717,0.063l-0.512,0.565
			c-0.094,0.108-0.143,0.251-0.134,0.399c0.014,0.143,0.085,0.282,0.202,0.372l1.542,1.22c0.376,0.29,0.91,0.259,1.245-0.077
			l2.708-2.707c0.13-0.13,0.207-0.31,0.207-0.493c0-0.184-0.077-0.363-0.207-0.493l-0.31-0.309c-0.273-0.273-0.713-0.273-0.986,0
			L24.126,31.695z M24.126,31.695"/>
		<path fill="#333333" d="M34.221,35.702h-4.129c-0.65,0-1.178,0.484-1.178,1.134c0,0.651,0.529,1.139,1.178,1.139h4.129
			c0.649,0,1.174-0.489,1.174-1.139C35.394,36.186,34.87,35.702,34.221,35.702L34.221,35.702z M34.221,35.702"/>
		<path fill="#333333" d="M24.126,36.778l-0.887-0.691c-0.216-0.17-0.534-0.143-0.717,0.063l-0.512,0.565
			c-0.094,0.108-0.148,0.251-0.134,0.399c0.014,0.147,0.085,0.282,0.202,0.372l1.542,1.219c0.376,0.291,0.91,0.265,1.245-0.071
			l2.708-2.713c0.273-0.269,0.273-0.713,0-0.986l-0.31-0.309c-0.13-0.131-0.309-0.202-0.492-0.202c-0.185,0-0.364,0.071-0.493,0.202
			L24.126,36.778z M24.126,36.778"/>
	</g>
</g>
<g>
</g>
<g>
</g>
<g>
</g>
<g>
</g>
<g>
</g>
<g>
</g>
<g>
</g>
<g>
</g>
<g>
</g>
<g>
</g>
<g>
</g>
<g>
</g>
<g>
</g>
<g>
</g>
<g>
</g>
</svg>
