<?xml version="1.0" encoding="utf-8"?>
<!-- Generator: Adobe Illustrator 18.0.0, SVG Export Plug-In . SVG Version: 6.00 Build 0)  -->
<!DOCTYPE svg PUBLIC "-//W3C//DTD SVG 1.1//EN" "http://www.w3.org/Graphics/SVG/1.1/DTD/svg11.dtd">
<svg version="1.1" id="Layer_1" xmlns="http://www.w3.org/2000/svg" xmlns:xlink="http://www.w3.org/1999/xlink" x="0px" y="0px"
	 width="56.823px" height="56.823px" viewBox="0 0 56.823 56.823" enable-background="new 0 0 56.823 56.823" xml:space="preserve">
<g>
	<g>
		<path fill="#EFC94C" d="M28.412,56.573C12.883,56.573,0.25,43.94,0.25,28.411S12.883,0.25,28.412,0.25
			s28.161,12.633,28.161,28.161S43.94,56.573,28.412,56.573z"/>
		<g>
			<path fill="#E5B428" d="M28.411,0.5c15.39,0,27.911,12.521,27.911,27.911S43.802,56.323,28.411,56.323S0.5,43.802,0.5,28.411
				S13.021,0.5,28.411,0.5 M28.411,0C12.72,0,0,12.72,0,28.411c0,15.691,12.72,28.411,28.411,28.411
				c15.691,0,28.411-12.72,28.411-28.411C56.823,12.72,44.103,0,28.411,0L28.411,0z"/>
		</g>
	</g>
	<g>
		<path fill="#333333" d="M44.439,26.353v16.678h-22.58v-8.712l6.576-7.966h2.888v16.116h3.816V26.353H44.439z M22.862,31.993
			l-6.041,7.275l-4.061-3.37l5.58-6.718c-0.847,0.21-1.925,0.252-3.07,0.062c-2.475-0.401-4.32-1.696-4.129-2.89
			c0.033-0.203,0.121-0.392,0.264-0.562c0.679-0.812,2.515-1.192,4.569-0.868c0.686,0.116,1.322,0.305,1.878,0.536
			c-0.325-0.508-0.623-1.099-0.868-1.756c-0.698-1.952-0.665-3.83,0.014-4.651c0.142-0.168,0.311-0.292,0.508-0.359
			c1.131-0.413,2.746,1.166,3.592,3.52c0.394,1.092,0.555,2.156,0.508,3.03l5.58-6.718l4.061,3.369l-5.946,7.152l-4.101-3.403
			l-2.442,2.943L22.862,31.993z M18.157,23.283c0.196,0.536,0.448,1.038,0.744,1.498l0.767,1.187l0.515,0.061
			c0.21-0.338,0.385-1.633-0.252-3.389c-0.658-1.817-1.64-2.664-1.999-2.759C17.688,20.232,17.527,21.527,18.157,23.283
			L18.157,23.283z M18.84,27.622l-0.168-0.488l-1.289-0.522c-0.514-0.21-1.05-0.366-1.612-0.455
			c-1.838-0.305-3.079,0.102-3.382,0.408c0.161,0.331,1.171,1.138,3.077,1.451C17.282,28.313,18.516,27.92,18.84,27.622
			L18.84,27.622z M39.185,22.747c0.17-0.236,0.462-0.359,0.718-0.359c0.028,0,0.054,0,0.082,0c0.298,0.035,0.502,0.13,0.637,0.305
			c0.128,0.17,0.17,0.406,0.121,0.698c-0.115,0.699-1.409,1.838-1.47,1.885c-0.021,0.021-0.054,0.028-0.082,0.028
			c-0.035,0-0.068-0.007-0.089-0.028c-0.054-0.047-1.362-1.178-1.477-1.885c-0.049-0.292-0.007-0.528,0.121-0.698
			c0.135-0.175,0.345-0.271,0.644-0.305c0.021,0,0.047,0,0.075,0C38.724,22.388,39.008,22.511,39.185,22.747L39.185,22.747z
			 M39.836,22.639c0.672,0.101,0.725,0.861,0.725,0.861C40.643,22.523,39.836,22.639,39.836,22.639L39.836,22.639z M32.834,23.33
			c0.115-0.149,0.298-0.236,0.562-0.264c0.021,0,0.04,0,0.068,0c0.224,0,0.481,0.108,0.637,0.319
			c0.149-0.212,0.408-0.319,0.637-0.319c0.021,0,0.042,0,0.062,0c0.271,0.028,0.453,0.115,0.569,0.264
			c0.115,0.156,0.149,0.359,0.108,0.618c-0.101,0.623-1.248,1.626-1.295,1.668c-0.026,0.019-0.047,0.026-0.082,0.026
			c-0.026,0-0.054-0.007-0.075-0.019c-0.047-0.049-1.206-1.052-1.309-1.675C32.677,23.689,32.712,23.486,32.834,23.33L32.834,23.33z
			 M34.677,23.29c0.597,0.089,0.639,0.758,0.639,0.758C35.388,23.181,34.677,23.29,34.677,23.29L34.677,23.29z M34.21,17.757
			c-0.075-0.481-0.007-0.875,0.21-1.159c0.217-0.285,0.569-0.453,1.071-0.508c0.04,0,0.082-0.005,0.121-0.005
			c0.434,0,0.923,0.21,1.208,0.602c0.285-0.392,0.772-0.602,1.206-0.602c0.04,0,0.082,0.005,0.121,0.005
			c0.495,0.056,0.849,0.224,1.066,0.508c0.222,0.285,0.292,0.679,0.21,1.159c-0.191,1.187-2.36,3.072-2.447,3.153
			c-0.042,0.04-0.095,0.054-0.149,0.054c-0.056,0-0.102-0.014-0.149-0.054C36.589,20.829,34.406,18.944,34.21,17.757L34.21,17.757z
			 M37.905,16.511c1.125,0.168,1.206,1.43,1.206,1.43C39.253,16.314,37.905,16.511,37.905,16.511L37.905,16.511z M30.977,16.015
			c0-0.047-0.042-0.094-0.088-0.094c-0.056,0-0.095,0.047-0.095,0.094c0,0.056,0.04,0.095,0.095,0.095
			C30.935,16.111,30.977,16.071,30.977,16.015L30.977,16.015z M32.969,15.982h-1.845v0.068h1.845V15.982z M30.853,18.042h0.061
			v-1.85h-0.061V18.042z M30.914,13.901h-0.061v1.85h0.061V13.901z M30.685,16.171l-1.309,1.302l0.047,0.049l1.308-1.302
			L30.685,16.171z M32.393,17.48l-1.309-1.309l-0.04,0.049l1.302,1.302L32.393,17.48z M30.657,16.015h-1.85v0.069h1.85V16.015z
			 M32.365,14.627l-0.047-0.049l-1.281,1.336l0.047,0.047L32.365,14.627z M32.033,13.827l-0.054-0.035l-0.896,1.621l0.054,0.026
			L32.033,13.827z M30.732,15.453l-0.868-1.633l-0.061,0.033l0.875,1.628L30.732,15.453z M30.291,15.772l-1.763-0.536l-0.019,0.061
			l1.768,0.536L30.291,15.772z M33.179,16.747l-1.768-0.535l-0.021,0.061l1.768,0.534L33.179,16.747z M31.553,15.812l1.633-0.875
			l-0.035-0.054l-1.626,0.875L31.553,15.812z M28.663,17.148l1.635-0.875l-0.035-0.054l-1.626,0.875L28.663,17.148z M30.081,18.389
			l0.59-1.756l-0.061-0.021l-0.59,1.756L30.081,18.389z M31.64,18.396l0.068-0.021l-0.555-1.763l-0.061,0.014L31.64,18.396z
			 M30.725,15.901l-1.302-1.302l-0.047,0.04l1.309,1.308L30.725,15.901z M41.504,19.215c0-0.026-0.021-0.047-0.042-0.047
			c-0.026,0-0.047,0.021-0.047,0.047c0,0.028,0.021,0.049,0.047,0.049C41.483,19.264,41.504,19.243,41.504,19.215L41.504,19.215z
			 M42.493,19.194h-0.915v0.035h0.915V19.194z M41.45,20.218h0.026v-0.915H41.45V20.218z M41.476,18.172h-0.033v0.908h0.033V18.172z
			 M41.362,19.29l-0.651,0.644l0.026,0.028l0.646-0.651L41.362,19.29z M42.209,19.934l-0.644-0.644l-0.028,0.021l0.651,0.651
			L42.209,19.934z M41.348,19.215h-0.915v0.028h0.915V19.215z M42.202,18.531l-0.026-0.021l-0.644,0.651l0.019,0.021L42.202,18.531z
			 M42.052,18.144l-0.026-0.021l-0.489,0.774l0.028,0.019L42.052,18.144z M41.389,18.938l-0.434-0.807l-0.028,0.014l0.434,0.807
			L41.389,18.938z M41.166,19.094l-0.875-0.264l-0.007,0.033l0.875,0.264L41.166,19.094z M42.603,19.581l-0.882-0.271l-0.007,0.033
			l0.875,0.266L42.603,19.581z M41.795,19.115l0.807-0.434l-0.021-0.028l-0.807,0.427L41.795,19.115z M40.365,19.778l0.805-0.434
			l-0.012-0.033l-0.814,0.434L40.365,19.778z M41.063,20.388l0.292-0.868l-0.028-0.007l-0.292,0.868L41.063,20.388z M41.835,20.395
			l0.028-0.014l-0.264-0.875l-0.035,0.014L41.835,20.395z M41.382,19.161l-0.646-0.651l-0.026,0.021l0.651,0.651L41.382,19.161z
			 M41.382,19.161"/>
	</g>
</g>
<g>
</g>
<g>
</g>
<g>
</g>
<g>
</g>
<g>
</g>
<g>
</g>
<g>
</g>
<g>
</g>
<g>
</g>
<g>
</g>
<g>
</g>
<g>
</g>
<g>
</g>
<g>
</g>
<g>
</g>
</svg>
