<?xml version="1.0" encoding="utf-8"?>
<!-- Generator: Adobe Illustrator 18.0.0, SVG Export Plug-In . SVG Version: 6.00 Build 0)  -->
<!DOCTYPE svg PUBLIC "-//W3C//DTD SVG 1.1//EN" "http://www.w3.org/Graphics/SVG/1.1/DTD/svg11.dtd">
<svg version="1.1" id="Layer_1" xmlns="http://www.w3.org/2000/svg" xmlns:xlink="http://www.w3.org/1999/xlink" x="0px" y="0px"
	 width="56.823px" height="56.823px" viewBox="0 0 56.823 56.823" enable-background="new 0 0 56.823 56.823" xml:space="preserve">
<g>
	<g>
		<path fill="#EFC94C" d="M28.412,56.573C12.883,56.573,0.25,43.94,0.25,28.411S12.883,0.25,28.412,0.25
			s28.161,12.633,28.161,28.161S43.94,56.573,28.412,56.573z"/>
		<g>
			<path fill="#E5B428" d="M28.411,0.5c15.39,0,27.911,12.521,27.911,27.911S43.802,56.323,28.411,56.323S0.5,43.802,0.5,28.411
				S13.021,0.5,28.411,0.5 M28.411,0C12.72,0,0,12.72,0,28.411c0,15.691,12.72,28.411,28.411,28.411
				c15.691,0,28.411-12.72,28.411-28.411C56.823,12.72,44.103,0,28.411,0L28.411,0z"/>
		</g>
	</g>
	<g>
		<path fill="#333333" d="M39.113,22.41l0.023-0.015l-6.373-8.668l-0.02-0.025H17.681V43.12h21.461V22.427L39.113,22.41z
			 M31.779,15.866l3.029,4.12l-3.879-2.186L31.779,15.866z M37.092,41.073H19.731V15.751h9.861l-1.285,2.924l1.616,0.91l7.169,4.039
			V41.073z M37.092,41.073"/>
		<path fill="#333333" d="M28.903,28.402c-0.026-0.13-0.101-0.244-0.214-0.319c-0.002,0-0.003-0.002-0.004-0.003
			c-0.266-0.927-0.619-1.871-1.347-2.548c-0.121-0.111-0.294-0.158-0.452-0.121c-0.162,0.037-0.294,0.152-0.356,0.307
			c-0.404,1.039-0.542,2.137-0.675,3.199c-0.029,0.227-0.059,0.46-0.092,0.69c-0.17,0.088-0.28,0.269-0.271,0.468
			c0.006,0.125,0.059,0.243,0.145,0.33c-0.085,0.455-0.181,0.83-0.3,1.17c-0.045,0.125-0.037,0.262,0.022,0.382
			c0.059,0.121,0.159,0.212,0.286,0.255c0.052,0.019,0.108,0.03,0.164,0.03c0.214,0,0.402-0.136,0.472-0.336
			c0.149-0.422,0.265-0.888,0.365-1.457c0.503-0.137,0.991-0.412,1.426-0.8c0.139,0.494,0.303,0.997,0.529,1.447
			c0.119,0.24,0.426,0.347,0.672,0.224c0.246-0.124,0.347-0.424,0.224-0.672c-0.272-0.543-0.444-1.19-0.627-1.879l-0.012-0.046
			C28.911,28.625,28.925,28.514,28.903,28.402L28.903,28.402z M26.814,29.317c0.012-0.093,0.023-0.184,0.036-0.275
			c0.086-0.689,0.175-1.4,0.34-2.074c0.237,0.43,0.41,0.946,0.581,1.56C27.487,28.871,27.162,29.139,26.814,29.317L26.814,29.317z
			 M26.814,29.317"/>
		<path fill="#333333" d="M29.511,28.602c0.115,0.24,0.424,0.353,0.667,0.237c0.192-0.09,0.381-0.187,0.57-0.286
			c0.071,0.191,0.145,0.369,0.226,0.533c0.084,0.172,0.26,0.282,0.451,0.282c0.076,0,0.149-0.017,0.218-0.05
			c0.248-0.121,0.351-0.421,0.232-0.67c-0.086-0.178-0.166-0.368-0.235-0.568c0.349-0.184,0.724-0.373,1.111-0.526
			c0.256-0.104,0.381-0.395,0.279-0.652c-0.099-0.251-0.399-0.381-0.65-0.279c-0.361,0.144-0.705,0.311-0.989,0.458
			c-0.047-0.296-0.067-0.579-0.059-0.846c0.003-0.135-0.046-0.262-0.137-0.358c-0.093-0.097-0.217-0.153-0.364-0.156
			c-0.274,0-0.494,0.214-0.5,0.487c-0.011,0.43,0.034,0.901,0.132,1.365c-0.231,0.122-0.472,0.249-0.712,0.362
			C29.5,28.052,29.394,28.351,29.511,28.602L29.511,28.602z M29.511,28.602"/>
		<path fill="#333333" d="M28.883,24.082c-0.265,0-0.477,0.203-0.494,0.47c-0.009,0.133,0.036,0.262,0.124,0.362
			c0.09,0.101,0.212,0.16,0.345,0.169c2.153,0.132,3.828,0.845,4.594,1.955c0.582,0.844,0.672,1.935,0.265,3.242
			c-0.602,1.953-2.365,3.074-4.837,3.074c-0.65,0-1.314-0.079-1.977-0.237c-1.925-0.444-4.518-2.247-3.972-4.707
			c0.506-2.218,3.315-3.974,4.995-5.023c0.232-0.147,0.305-0.456,0.158-0.69c-0.141-0.226-0.463-0.302-0.69-0.16
			c-1.811,1.132-4.842,3.026-5.441,5.653c-0.701,3.158,2.341,5.352,4.721,5.902c0.74,0.175,1.486,0.265,2.215,0.265
			c2.935,0,5.043-1.379,5.784-3.781c0.503-1.617,0.368-2.998-0.396-4.108c-0.957-1.385-2.859-2.232-5.356-2.385L28.883,24.082z
			 M28.883,24.082"/>
	</g>
</g>
<g>
</g>
<g>
</g>
<g>
</g>
<g>
</g>
<g>
</g>
<g>
</g>
<g>
</g>
<g>
</g>
<g>
</g>
<g>
</g>
<g>
</g>
<g>
</g>
<g>
</g>
<g>
</g>
<g>
</g>
</svg>
