<?xml version="1.0" encoding="utf-8"?>
<!-- Generator: Adobe Illustrator 18.0.0, SVG Export Plug-In . SVG Version: 6.00 Build 0)  -->
<!DOCTYPE svg PUBLIC "-//W3C//DTD SVG 1.1//EN" "http://www.w3.org/Graphics/SVG/1.1/DTD/svg11.dtd">
<svg version="1.1" id="Layer_1" xmlns="http://www.w3.org/2000/svg" xmlns:xlink="http://www.w3.org/1999/xlink" x="0px" y="0px"
	 width="56.823px" height="56.823px" viewBox="0 0 56.823 56.823" enable-background="new 0 0 56.823 56.823" xml:space="preserve">
<g>
	<g>
		<path fill="#EFC94C" d="M28.412,56.573C12.883,56.573,0.25,43.94,0.25,28.412C0.25,12.883,12.883,0.25,28.412,0.25
			s28.161,12.633,28.161,28.162C56.573,43.94,43.94,56.573,28.412,56.573z"/>
		<g>
			<path fill="#E5B428" d="M28.411,0.5c15.39,0,27.911,12.521,27.911,27.911S43.802,56.323,28.411,56.323S0.5,43.802,0.5,28.411
				S13.021,0.5,28.411,0.5 M28.411,0C12.72,0,0,12.72,0,28.411s12.72,28.411,28.411,28.411c15.691,0,28.411-12.72,28.411-28.411
				S44.103,0,28.411,0L28.411,0z"/>
		</g>
	</g>
	<g>
		<path fill="#333333" d="M44.359,22.627c-0.154-1.137-0.174-3.1,0.883-3.757c0.018-0.011,0.032-0.029,0.051-0.044
			c0.863-0.278,1.461-0.666,0.993-1.188l-12.752-3.842l-20.646,2.869c0,0-2.363,0.339-2.154,4.014
			c0.115,1.997,0.743,2.979,1.291,3.462l-1.694,0.513c-0.468,0.522,0.13,0.907,0.993,1.184c0.017,0.015,0.029,0.032,0.05,0.044
			c1.055,0.66,1.034,2.62,0.884,3.759c-3.795,1.076-2.434,1.429-2.434,1.429l0.834,0.201c-0.586,0.53-1.17,1.532-1.058,3.435
			c0.209,3.674,2.151,3.928,2.151,3.928l13.513,4.391l20.393-4.938c0,0,1.362-0.354-2.433-1.432
			c-0.153-1.134-0.174-3.096,0.884-3.756c0.02-0.012,0.032-0.029,0.05-0.044c0.864-0.277,1.462-0.663,0.993-1.184l-0.886-0.269
			c0.592-0.356,1.479-1.288,1.617-3.71c0.097-1.662-0.339-2.637-0.84-3.211l1.75-0.425C46.789,24.056,48.154,23.705,44.359,22.627
			L44.359,22.627z M27.301,22.58l3.427-0.704l11.591-2.384l1.727-0.353c-0.554,1.01-0.531,2.393-0.44,3.279
			c0.021,0.201,0.045,0.383,0.065,0.525l-1.888,0.468L27.157,27.05L27.301,22.58z M12.569,26.154l1.727,0.354l11.129,2.289
			l0.972,0.201l2.917,0.598l0.142,4.47l-15.033-3.739l-1.482-0.369c0.023-0.141,0.045-0.324,0.068-0.524
			C13.096,28.547,13.12,27.165,12.569,26.154L12.569,26.154z M11.897,20.503c-0.02-0.978,0.154-1.685,0.507-2.045
			c0.224-0.229,0.49-0.277,0.669-0.277c0.097,0,0.165,0.015,0.171,0.015l8.896,2.899l4.437,1.447l-0.144,4.502L13.98,23.552
			l-0.657-0.183c-0.023-0.006-0.059-0.012-0.082-0.012C13.187,23.352,11.959,23.24,11.897,20.503L11.897,20.503z M25.295,41.076
			l-13.109-3.674c-0.023-0.009-0.056-0.012-0.082-0.015c-0.053-0.003-1.285-0.115-1.343-2.852c-0.021-0.978,0.153-1.686,0.506-2.045
			c0.224-0.23,0.487-0.277,0.669-0.277c0.094,0,0.165,0.014,0.168,0.014c0,0,0.003,0,0,0l13.336,4.346L25.295,41.076z M42.47,36.449
			c0.02,0.2,0.044,0.383,0.065,0.524L26.02,41.081l0.142-4.469l3.532-0.728l0.522,0.127l1.953-0.634l9.011-1.853l1.727-0.354
			C42.355,34.177,42.379,35.559,42.47,36.449L42.47,36.449z M43.381,30.37c-0.029,0.003-0.062,0.006-0.088,0.015l-1.247,0.351
			L30.183,34.06l-0.145-4.502l3.892-1.269l9.424-3.074c0,0,0.495-0.109,0.857,0.259c0.351,0.36,0.527,1.067,0.507,2.045
			C44.656,30.256,43.425,30.367,43.381,30.37L43.381,30.37z M43.381,30.37"/>
	</g>
</g>
<g>
</g>
<g>
</g>
<g>
</g>
<g>
</g>
<g>
</g>
<g>
</g>
<g>
</g>
<g>
</g>
<g>
</g>
<g>
</g>
<g>
</g>
<g>
</g>
<g>
</g>
<g>
</g>
<g>
</g>
</svg>
