<?xml version="1.0" encoding="utf-8"?>
<!-- Generator: Adobe Illustrator 18.1.0, SVG Export Plug-In . SVG Version: 6.00 Build 0)  -->
<svg version="1.1" id="Layer_1" xmlns="http://www.w3.org/2000/svg" xmlns:xlink="http://www.w3.org/1999/xlink" x="0px" y="0px"
	 viewBox="0 0 612 792" enable-background="new 0 0 612 792" xml:space="preserve">
<g>
	<path d="M457.7,702h50.6c-16-29.3-37.3-61.2-58.5-85.1C455,640.8,457.7,670.1,457.7,702z"/>
	<path d="M103.8,702h58.5c2.7-37.3,2.7-69.2,5.3-93.1C143.7,635.5,122.4,670.1,103.8,702z"/>
	<path d="M516.2,513.1c-29.3-26.6-66.5-50.6-103.8-63.9c-26.6-8-53.2-13.3-82.5-16L356.6,702h103.8c-2.7-31.9-5.3-61.2-8-85.1
		c21.3,23.9,42.6,55.9,58.5,85.1H612v-58.5C585.4,595.6,550.8,547.7,516.2,513.1z"/>
	<path d="M143.7,255c0,90.5,74.5,165,167.6,165S479,345.4,479,255S404.5,90,311.3,90S143.7,164.5,143.7,255z"/>
	<path d="M212.9,446.6c-42.6,13.3-82.5,37.3-114.4,66.5c-34.6,34.6-71.8,82.5-98.5,133V702h103.8c18.6-31.9,39.9-66.5,63.9-93.1
		c0,23.9-2.7,55.9-5.3,93.1h98.5l31.9-268.7C266.1,435.9,239.5,438.6,212.9,446.6z"/>
</g>
</svg>
