<?xml version="1.0" encoding="utf-8"?>
<!-- Generator: Adobe Illustrator 18.1.0, SVG Export Plug-In . SVG Version: 6.00 Build 0)  -->
<svg version="1.1" id="Layer_1" xmlns="http://www.w3.org/2000/svg" xmlns:xlink="http://www.w3.org/1999/xlink" x="0px" y="0px"
	 viewBox="0 0 23 23" enable-background="new 0 0 23 23" xml:space="preserve">
<g>
	<path fill="#EFCA4D" d="M17.2,23h1.9c-0.6-1.1-1.4-2.3-2.2-3.2C17.1,20.7,17.2,21.8,17.2,23z"/>
	<path fill="#EFCA4D" d="M3.9,23h2.2c0.1-1.4,0.1-2.6,0.2-3.5C5.4,20.5,4.6,21.8,3.9,23z"/>
	<path fill="#EFCA4D" d="M19.4,15.9c-1.1-1-2.5-1.9-3.9-2.4c-1-0.3-2-0.5-3.1-0.6l1,10.1h3.9c-0.1-1.2-0.2-2.3-0.3-3.2
		c0.8,0.9,1.6,2.1,2.2,3.2H23v-2.2C22,19,20.7,17.2,19.4,15.9z"/>
	<path fill="#EFCA4D" d="M5.4,6.2c0,3.4,2.8,6.2,6.3,6.2c3.5,0,6.3-2.8,6.3-6.2c0-3.4-2.8-6.2-6.3-6.2C8.2,0,5.4,2.8,5.4,6.2z"/>
	<path fill="#EFCA4D" d="M8,13.4c-1.6,0.5-3.1,1.4-4.3,2.5c-1.3,1.3-2.7,3.1-3.7,5V23h3.9c0.7-1.2,1.5-2.5,2.4-3.5
		c0,0.9-0.1,2.1-0.2,3.5h3.7l1.2-10.1C10,13,9,13.1,8,13.4z"/>
</g>
</svg>
