<?xml version="1.0" encoding="utf-8"?>
<!-- Generator: Adobe Illustrator 18.1.0, SVG Export Plug-In . SVG Version: 6.00 Build 0)  -->
<svg version="1.1" id="Layer_1" xmlns="http://www.w3.org/2000/svg" xmlns:xlink="http://www.w3.org/1999/xlink" x="0px" y="0px"
	 viewBox="0 0 21.2 24.1" enable-background="new 0 0 21.2 24.1" xml:space="preserve">
<g>
	<path fill="#EFCA4D" d="M10.5,0C7.1,0,4,1.5,1.5,3.7C0.2,4.8-0.3,6.6,0.4,8.2l1.6,3.7c1.5-3.3,4.8-5.5,8.6-5.5
		c3.9,0,7.3,2.4,8.7,5.8l1.7-4c0.7-1.6,0.2-3.4-1.1-4.5C17.2,1.5,14,0,10.5,0z M12.4,4.3h-1.1v1.1H9.8V4.3H8.6V2.7h1.1V1.6h1.5v1.1
		h1.1V4.3z"/>
	<path fill="#EFCA4D" d="M14.7,8.6C14.7,8.6,14.7,8.6,14.7,8.6c0,0-2.7,4.3-7.4,5.8c-0.2,0.1-0.4,0-0.5-0.2c-0.1-0.2-0.1-0.4,0-0.5
		c0.2-0.2,0.4-0.5,0.6-0.8c0.1-0.2,0.1-0.5,0-0.7C7.3,12.1,7,12,6.8,12c-1.4,0.4-3.7,1.5-4.5,4.5c0.4,4.2,3.9,7.6,8.2,7.6
		c4.6,0,8.3-3.7,8.3-8.3C18.8,12.7,17.1,10.1,14.7,8.6z"/>
</g>
</svg>
