<?xml version="1.0" encoding="utf-8"?>
<!-- Generator: Adobe Illustrator 18.0.0, SVG Export Plug-In . SVG Version: 6.00 Build 0)  -->
<!DOCTYPE svg PUBLIC "-//W3C//DTD SVG 1.1//EN" "http://www.w3.org/Graphics/SVG/1.1/DTD/svg11.dtd">
<svg version="1.1" id="Layer_1" xmlns="http://www.w3.org/2000/svg" xmlns:xlink="http://www.w3.org/1999/xlink" x="0px" y="0px"
	 width="308.605px" height="282.338px" viewBox="0 0 308.605 282.338" enable-background="new 0 0 308.605 282.338"
	 xml:space="preserve">
<polyline fill="none" stroke="#0BB4FF" stroke-width="6" stroke-miterlimit="10" points="28.936,210.666 142.936,142.622 
	272.108,38.666 "/>
<g>
	<path fill="#B3B3B3" d="M19.448,238.588c0,0.373-0.051,0.647-0.152,0.824c-0.102,0.176-0.328,0.264-0.68,0.264h-5.072
		c-0.374-0.288-0.56-0.555-0.56-0.8c-0.011-0.47,0.163-0.957,0.52-1.464s0.883-1.064,1.576-1.672l1.472-1.28
		c0.469-0.405,0.818-0.798,1.048-1.176c0.229-0.379,0.344-0.835,0.344-1.368c0-0.522-0.168-0.952-0.504-1.288
		s-0.75-0.504-1.24-0.504c-0.491,0-0.928,0.144-1.312,0.432c-0.384,0.288-0.688,0.672-0.912,1.152
		c-0.448-0.054-0.742-0.208-0.88-0.464c0.128-0.299,0.293-0.579,0.496-0.841c0.202-0.261,0.442-0.487,0.72-0.68
		c0.277-0.191,0.586-0.341,0.928-0.448c0.341-0.106,0.714-0.159,1.12-0.159s0.781,0.071,1.128,0.216
		c0.346,0.144,0.648,0.344,0.904,0.6s0.456,0.558,0.6,0.904s0.216,0.723,0.216,1.128s-0.05,0.763-0.151,1.072
		s-0.242,0.597-0.423,0.863c-0.181,0.268-0.396,0.521-0.646,0.761c-0.25,0.239-0.518,0.493-0.805,0.76l-1.276,1.104
		c-1.063,0.918-1.632,1.633-1.707,2.145c0.298-0.021,0.606-0.04,0.925-0.057c0.319-0.016,0.648-0.023,0.989-0.023H19.448z"/>
	<path fill="#B3B3B3" d="M22.52,229.98c0.555-0.576,1.274-0.863,2.16-0.863c1.152,0,2.002,0.438,2.552,1.312
		c0.549,0.875,0.824,2.234,0.824,4.08c0,1.781-0.264,3.12-0.792,4.016c-0.528,0.896-1.384,1.345-2.568,1.345
		c-1.152,0-2.006-0.448-2.56-1.345c-0.555-0.896-0.822-2.239-0.8-4.031c0-0.576,0.019-1.091,0.056-1.544
		c0.037-0.454,0.101-0.861,0.192-1.225c0.09-0.362,0.213-0.686,0.368-0.968C22.106,230.474,22.295,230.215,22.52,229.98z
		 M23.399,238.348c0.331,0.363,0.763,0.544,1.296,0.544c0.352,0,0.658-0.077,0.92-0.231c0.261-0.155,0.477-0.408,0.648-0.761
		c0.17-0.352,0.298-0.808,0.384-1.367c0.085-0.561,0.128-1.24,0.128-2.04c0-0.801-0.042-1.48-0.128-2.04
		c-0.085-0.561-0.213-1.017-0.384-1.368c-0.171-0.353-0.387-0.605-0.648-0.76c-0.262-0.155-0.568-0.232-0.92-0.232
		c-0.363,0-0.675,0.077-0.936,0.232c-0.262,0.154-0.478,0.407-0.648,0.76c-0.17,0.352-0.296,0.808-0.376,1.368
		c-0.08,0.56-0.12,1.239-0.12,2.04C22.616,236.465,22.877,237.751,23.399,238.348z"/>
	<path fill="#B3B3B3" d="M33.032,238.684l-0.016-1.01v-4.521c0-0.011,0.016-0.674,0.048-1.988c-0.598,0.811-1.397,1.43-2.4,1.855
		c-0.277-0.181-0.454-0.426-0.528-0.735c0.725-0.438,1.346-0.929,1.864-1.473c0.517-0.544,0.872-1.045,1.064-1.504
		c0.17-0.042,0.36-0.063,0.568-0.063s0.397,0.021,0.568,0.063v8.366l-0.016,1.01l0.864-0.016h1.232
		c0.032,0.179,0.048,0.349,0.048,0.512s-0.016,0.328-0.048,0.496h-5.664c-0.032-0.168-0.048-0.336-0.048-0.504
		s0.016-0.336,0.048-0.504h1.552L33.032,238.684z"/>
	<path fill="#B3B3B3" d="M39.479,229.98c0.555-0.576,1.274-0.863,2.16-0.863c1.152,0,2.002,0.438,2.552,1.312
		c0.549,0.875,0.824,2.234,0.824,4.08c0,1.781-0.264,3.12-0.792,4.016c-0.528,0.896-1.384,1.345-2.568,1.345
		c-1.152,0-2.006-0.448-2.56-1.345c-0.555-0.896-0.822-2.239-0.8-4.031c0-0.576,0.019-1.091,0.056-1.544
		c0.037-0.454,0.101-0.861,0.192-1.225c0.09-0.362,0.213-0.686,0.368-0.968C39.066,230.474,39.255,230.215,39.479,229.98z
		 M40.359,238.348c0.331,0.363,0.763,0.544,1.296,0.544c0.352,0,0.658-0.077,0.92-0.231c0.261-0.155,0.477-0.408,0.648-0.761
		c0.17-0.352,0.298-0.808,0.384-1.367c0.085-0.561,0.128-1.24,0.128-2.04c0-0.801-0.042-1.48-0.128-2.04
		c-0.085-0.561-0.213-1.017-0.384-1.368c-0.171-0.353-0.387-0.605-0.648-0.76c-0.262-0.155-0.568-0.232-0.92-0.232
		c-0.363,0-0.675,0.077-0.936,0.232c-0.262,0.154-0.478,0.407-0.648,0.76c-0.17,0.352-0.296,0.808-0.376,1.368
		c-0.08,0.56-0.12,1.239-0.12,2.04C39.576,236.465,39.837,237.751,40.359,238.348z"/>
</g>
<g>
	<path fill="#FFFFFF" d="M14.274,170.009c0.312,0.433,0.522,0.78,0.63,1.044c0.108,0.265,0.207,0.598,0.297,0.999
		c0.09,0.402,0.159,0.844,0.207,1.323c0.048,0.48,0.072,0.96,0.072,1.44c0,0.924-0.105,1.764-0.315,2.52s-0.519,1.398-0.927,1.926
		c-0.408,0.528-0.906,0.937-1.494,1.225s-1.266,0.432-2.034,0.432c-1.104,0-2.034-0.198-2.79-0.594
		c0.048-0.732,0.313-1.278,0.794-1.639c0.59,0.253,1.198,0.379,1.825,0.379c0.807,0,1.415-0.276,1.824-0.828
		c0.409-0.552,0.632-1.314,0.668-2.286c-0.71,0.576-1.541,0.864-2.492,0.864c-0.951,0-1.719-0.321-2.303-0.964
		c-0.583-0.642-0.875-1.61-0.875-2.906c0-0.648,0.099-1.23,0.297-1.746c0.198-0.516,0.477-0.957,0.837-1.323
		c0.36-0.366,0.789-0.645,1.287-0.837c0.498-0.191,1.047-0.288,1.647-0.288C12.629,168.75,13.578,169.169,14.274,170.009z
		 M11.258,174.906c0.627,0,1.225-0.252,1.792-0.756v-0.252c0-1.212-0.157-2.079-0.471-2.602c-0.314-0.521-0.76-0.783-1.339-0.783
		c-0.482,0-0.856,0.201-1.122,0.604s-0.398,0.945-0.398,1.629C9.72,174.185,10.232,174.906,11.258,174.906z"/>
	<path fill="#FFFFFF" d="M23.544,178.398l0.018,1.134v1.134c-0.349,0.06-0.735,0.09-1.161,0.09c-0.426,0-0.801-0.03-1.125-0.09
		v-1.134l0.018-1.134l-1.152,0.035h-2.88c-0.348-0.563-0.522-1.008-0.522-1.332c0-0.323,0.114-0.749,0.342-1.277l2.97-6.948
		c0.336-0.072,0.735-0.06,1.197,0.036s0.783,0.24,0.963,0.432l-1.62,3.798c-0.612,1.536-1.152,2.652-1.62,3.349l0.054,0.072
		c0.696-0.072,1.44-0.108,2.232-0.108h0.018v-1.44c0-0.575,0.141-1.028,0.423-1.358c0.282-0.33,0.675-0.495,1.179-0.495h0.576
		l0.108,0.107v2.053l-0.018,1.134l0.936-0.019h0.702c0.048,0.253,0.072,0.553,0.072,0.9c0,0.349-0.054,0.702-0.162,1.063H23.544z"/>
	<path fill="#FFFFFF" d="M26.964,180.557c-0.06-0.132-0.105-0.284-0.135-0.459c-0.03-0.174-0.045-0.351-0.045-0.53
		c0-0.192,0.015-0.375,0.045-0.55c0.03-0.174,0.075-0.326,0.135-0.459c0.384-0.191,0.804-0.287,1.26-0.287
		c0.468,0,0.894,0.096,1.278,0.287c0.12,0.276,0.18,0.612,0.18,1.009c0,0.384-0.06,0.714-0.18,0.989
		c-0.3,0.192-0.72,0.288-1.26,0.288S27.276,180.75,26.964,180.557z"/>
	<path fill="#FFFFFF" d="M31.337,177.713c0-0.647,0.189-1.235,0.567-1.764c0.378-0.528,0.861-0.96,1.449-1.296
		c-1.152-0.696-1.728-1.62-1.728-2.772c0-0.443,0.099-0.857,0.297-1.242c0.198-0.384,0.471-0.714,0.819-0.989
		c0.348-0.276,0.756-0.495,1.224-0.657c0.468-0.162,0.978-0.243,1.53-0.243c0.552,0,1.062,0.075,1.53,0.225
		c0.468,0.15,0.87,0.36,1.206,0.631c0.336,0.27,0.597,0.594,0.783,0.972c0.186,0.378,0.279,0.795,0.279,1.251
		c0,1.068-0.57,1.92-1.71,2.556c1.356,0.756,2.034,1.824,2.034,3.204c0,0.517-0.111,0.981-0.333,1.396
		c-0.222,0.414-0.525,0.765-0.909,1.053c-0.384,0.288-0.837,0.507-1.359,0.657c-0.522,0.149-1.077,0.225-1.665,0.225
		c-0.612,0-1.164-0.072-1.656-0.216c-0.492-0.145-0.912-0.354-1.26-0.63c-0.348-0.276-0.618-0.612-0.81-1.008
		C31.434,178.667,31.337,178.217,31.337,177.713z M34.949,175.374h-0.018c-0.812,0.576-1.218,1.302-1.218,2.178
		c0,0.517,0.161,0.931,0.483,1.242c0.323,0.313,0.74,0.468,1.254,0.468c0.513,0,0.931-0.155,1.253-0.468
		c0.322-0.312,0.483-0.72,0.483-1.224c0-0.937-0.615-1.62-1.844-2.053L34.949,175.374z M33.948,171.864
		c0,0.78,0.594,1.355,1.782,1.728l0.234,0.09c0.696-0.443,1.044-1.031,1.044-1.764c0-0.443-0.144-0.801-0.432-1.071
		c-0.288-0.27-0.654-0.404-1.098-0.404c-0.444,0-0.81,0.135-1.098,0.404C34.091,171.117,33.948,171.456,33.948,171.864z"/>
	<path fill="#FFFFFF" d="M49.644,168.875c0.564,0.588,0.846,1.536,0.846,2.844c0,1.225-0.24,2.127-0.72,2.709
		s-1.14,0.873-1.98,0.873c-0.828,0-1.482-0.291-1.962-0.873c-0.48-0.582-0.72-1.484-0.72-2.709c0-1.199,0.231-2.094,0.693-2.682
		s1.125-0.882,1.989-0.882C48.582,168.156,49.199,168.396,49.644,168.875z M47.79,169.11c-0.972,0-1.458,0.876-1.458,2.628
		c0,1.74,0.486,2.609,1.458,2.609c0.984,0,1.476-0.869,1.476-2.609C49.266,169.986,48.773,169.11,47.79,169.11z M47.897,180.666
		l6.786-12.294c0.156-0.06,0.378-0.09,0.666-0.09c0.132,0,0.258,0.009,0.378,0.026c0.12,0.019,0.216,0.039,0.288,0.063
		l-6.768,12.294c-0.084,0.036-0.186,0.06-0.306,0.072c-0.12,0.012-0.246,0.018-0.378,0.018c-0.132,0-0.258-0.006-0.378-0.018
		C48.065,180.725,47.97,180.702,47.897,180.666z M57.959,180.162c-0.48,0.48-1.092,0.72-1.836,0.72c-0.84,0-1.5-0.291-1.98-0.873
		s-0.72-1.484-0.72-2.709c0-1.212,0.234-2.108,0.702-2.69c0.468-0.582,1.134-0.873,1.998-0.873c0.864,0,1.53,0.294,1.998,0.882
		c0.468,0.588,0.702,1.482,0.702,2.682C58.824,178.62,58.536,179.574,57.959,180.162z M56.105,174.69
		c-0.972,0-1.458,0.876-1.458,2.628c0,1.74,0.486,2.609,1.458,2.609c0.984,0,1.476-0.869,1.476-2.609
		C57.582,175.566,57.089,174.69,56.105,174.69z"/>
</g>
<g>
	<path fill="#FFFFFF" d="M176.657,137.973c0.312,0.433,0.521,0.78,0.63,1.044c0.107,0.265,0.207,0.598,0.297,0.999
		c0.09,0.402,0.159,0.844,0.207,1.323c0.048,0.48,0.071,0.96,0.071,1.44c0,0.924-0.104,1.764-0.314,2.52s-0.52,1.398-0.927,1.926
		c-0.408,0.528-0.906,0.937-1.494,1.225s-1.267,0.432-2.034,0.432c-1.104,0-2.034-0.198-2.79-0.594
		c0.048-0.732,0.313-1.278,0.795-1.639c0.59,0.253,1.198,0.379,1.824,0.379c0.807,0,1.415-0.276,1.824-0.828
		s0.633-1.314,0.669-2.286c-0.711,0.576-1.541,0.864-2.492,0.864s-1.719-0.321-2.303-0.964c-0.583-0.642-0.875-1.61-0.875-2.906
		c0-0.648,0.099-1.23,0.297-1.746s0.477-0.957,0.837-1.323s0.789-0.645,1.287-0.837c0.498-0.191,1.047-0.288,1.646-0.288
		C175.013,136.713,175.961,137.133,176.657,137.973z M173.642,142.87c0.627,0,1.225-0.252,1.791-0.756v-0.252
		c0-1.212-0.157-2.079-0.471-2.602c-0.313-0.521-0.76-0.783-1.339-0.783c-0.482,0-0.856,0.201-1.122,0.604s-0.398,0.945-0.398,1.629
		C172.103,142.149,172.615,142.87,173.642,142.87z"/>
	<path fill="#FFFFFF" d="M182.345,138.946l-0.144,2.105c0.432-0.132,0.852-0.198,1.26-0.198c0.576,0,1.098,0.091,1.565,0.271
		c0.469,0.18,0.864,0.432,1.188,0.756s0.573,0.72,0.747,1.188c0.174,0.468,0.261,0.989,0.261,1.565c0,0.685-0.107,1.29-0.324,1.818
		c-0.216,0.528-0.527,0.972-0.936,1.332c-0.408,0.359-0.873,0.633-1.396,0.818c-0.521,0.187-1.07,0.279-1.646,0.279
		c-1.44,0-2.604-0.402-3.492-1.206c0.048-0.24,0.168-0.516,0.36-0.828c0.191-0.312,0.396-0.552,0.611-0.72
		c0.42,0.3,0.825,0.52,1.216,0.657c0.39,0.138,0.753,0.207,1.089,0.207c0.672,0,1.188-0.216,1.548-0.648
		c0.36-0.432,0.54-1.002,0.54-1.71c0-0.636-0.189-1.122-0.567-1.458s-0.837-0.504-1.377-0.504c-0.3,0-0.605,0.054-0.918,0.162
		c-0.313,0.107-0.612,0.276-0.899,0.504c-0.205-0.048-0.421-0.15-0.648-0.306c-0.229-0.156-0.402-0.324-0.522-0.504l0.288-5.437
		l0.145-0.126h6.317c0.108,0.288,0.162,0.612,0.162,0.972c0,0.673-0.336,1.009-1.008,1.009H182.345z"/>
	<path fill="#FFFFFF" d="M189.347,148.521c-0.06-0.132-0.105-0.284-0.135-0.459c-0.03-0.174-0.045-0.351-0.045-0.53
		c0-0.192,0.015-0.375,0.045-0.55c0.029-0.174,0.075-0.326,0.135-0.459c0.384-0.191,0.804-0.287,1.26-0.287
		c0.469,0,0.895,0.096,1.278,0.287c0.12,0.276,0.18,0.612,0.18,1.009c0,0.384-0.06,0.714-0.18,0.989
		c-0.3,0.192-0.72,0.288-1.26,0.288S189.659,148.713,189.347,148.521z"/>
	<path fill="#FFFFFF" d="M200.417,146.362l0.018,1.134v1.134c-0.349,0.06-0.735,0.09-1.161,0.09s-0.801-0.03-1.125-0.09v-1.134
		l0.019-1.134l-1.152,0.035h-2.88c-0.349-0.563-0.522-1.008-0.522-1.332c0-0.323,0.114-0.749,0.342-1.277l2.971-6.948
		c0.336-0.072,0.734-0.06,1.196,0.036s0.783,0.24,0.964,0.432l-1.62,3.798c-0.612,1.536-1.152,2.652-1.62,3.349l0.054,0.072
		c0.696-0.072,1.44-0.108,2.232-0.108h0.018v-1.44c0-0.575,0.141-1.028,0.423-1.358s0.675-0.495,1.18-0.495h0.575l0.108,0.107v2.053
		l-0.018,1.134l0.936-0.019h0.702c0.048,0.253,0.072,0.553,0.072,0.9c0,0.349-0.055,0.702-0.162,1.063H200.417z"/>
	<path fill="#FFFFFF" d="M211.307,146.614c0,0.672-0.105,1.179-0.315,1.521s-0.614,0.513-1.215,0.513h-5.472
		c-0.576-0.575-0.864-1.062-0.864-1.458c0-0.924,0.718-2.027,2.152-3.312l1.848-1.656c0.753-0.659,1.13-1.344,1.13-2.052
		c0-0.456-0.135-0.825-0.403-1.107c-0.27-0.281-0.625-0.423-1.067-0.423s-0.822,0.156-1.139,0.468
		c-0.317,0.313-0.554,0.709-0.709,1.188c-0.322-0.012-0.648-0.084-0.977-0.216c-0.329-0.132-0.565-0.307-0.709-0.522
		c0.12-0.407,0.297-0.785,0.531-1.134c0.234-0.348,0.519-0.647,0.854-0.9c0.336-0.252,0.718-0.449,1.144-0.594
		c0.426-0.144,0.891-0.216,1.395-0.216s0.97,0.084,1.396,0.252s0.795,0.405,1.106,0.711c0.313,0.306,0.559,0.675,0.738,1.107
		c0.18,0.432,0.271,0.912,0.271,1.439c0,0.372-0.048,0.714-0.144,1.026s-0.233,0.612-0.413,0.899
		c-0.179,0.288-0.406,0.573-0.682,0.855s-0.592,0.579-0.95,0.891l-1.327,1.135c-0.886,0.756-1.424,1.338-1.614,1.746
		c0.933-0.108,1.788-0.162,2.565-0.162H211.307z"/>
	<path fill="#FFFFFF" d="M221.566,136.839c0.563,0.588,0.846,1.536,0.846,2.844c0,1.225-0.24,2.127-0.72,2.709
		c-0.48,0.582-1.141,0.873-1.98,0.873c-0.828,0-1.482-0.291-1.962-0.873s-0.72-1.484-0.72-2.709c0-1.199,0.23-2.094,0.692-2.682
		s1.125-0.882,1.989-0.882C220.504,136.12,221.122,136.36,221.566,136.839z M219.712,137.074c-0.972,0-1.458,0.876-1.458,2.628
		c0,1.74,0.486,2.609,1.458,2.609c0.984,0,1.477-0.869,1.477-2.609C221.188,137.95,220.696,137.074,219.712,137.074z
		 M219.82,148.629l6.786-12.294c0.155-0.06,0.378-0.09,0.666-0.09c0.132,0,0.258,0.009,0.378,0.026
		c0.119,0.019,0.216,0.039,0.288,0.063l-6.769,12.294c-0.084,0.036-0.186,0.06-0.306,0.072c-0.12,0.012-0.246,0.018-0.378,0.018
		c-0.133,0-0.259-0.006-0.378-0.018C219.988,148.689,219.893,148.666,219.82,148.629z M229.882,148.125
		c-0.479,0.48-1.092,0.72-1.836,0.72c-0.84,0-1.5-0.291-1.979-0.873c-0.48-0.582-0.721-1.484-0.721-2.709
		c0-1.212,0.234-2.108,0.702-2.69c0.469-0.582,1.134-0.873,1.998-0.873s1.53,0.294,1.998,0.882s0.702,1.482,0.702,2.682
		C230.746,146.583,230.458,147.538,229.882,148.125z M228.028,142.654c-0.973,0-1.458,0.876-1.458,2.628
		c0,1.74,0.485,2.609,1.458,2.609c0.983,0,1.476-0.869,1.476-2.609C229.504,143.53,229.012,142.654,228.028,142.654z"/>
</g>
<g>
	<path fill="#B3B3B3" d="M257.687,238.588c0,0.373-0.051,0.647-0.152,0.824c-0.102,0.176-0.328,0.264-0.68,0.264h-5.072
		c-0.374-0.288-0.561-0.555-0.561-0.8c-0.011-0.47,0.163-0.957,0.521-1.464s0.883-1.064,1.576-1.672l1.472-1.28
		c0.47-0.405,0.818-0.798,1.048-1.176c0.229-0.379,0.344-0.835,0.344-1.368c0-0.522-0.168-0.952-0.504-1.288
		s-0.749-0.504-1.239-0.504c-0.491,0-0.929,0.144-1.313,0.432s-0.688,0.672-0.912,1.152c-0.448-0.054-0.741-0.208-0.88-0.464
		c0.128-0.299,0.293-0.579,0.496-0.841c0.202-0.261,0.442-0.487,0.72-0.68c0.277-0.191,0.587-0.341,0.929-0.448
		c0.341-0.106,0.714-0.159,1.119-0.159s0.781,0.071,1.129,0.216c0.346,0.144,0.647,0.344,0.903,0.6s0.456,0.558,0.601,0.904
		c0.144,0.347,0.216,0.723,0.216,1.128s-0.051,0.763-0.151,1.072c-0.102,0.31-0.242,0.597-0.423,0.863
		c-0.181,0.268-0.396,0.521-0.646,0.761c-0.25,0.239-0.518,0.493-0.805,0.76l-1.276,1.104c-1.063,0.918-1.632,1.633-1.706,2.145
		c0.298-0.021,0.605-0.04,0.925-0.057c0.319-0.016,0.648-0.023,0.989-0.023H257.687z"/>
	<path fill="#B3B3B3" d="M260.758,229.98c0.555-0.576,1.274-0.863,2.16-0.863c1.152,0,2.003,0.438,2.552,1.312
		c0.55,0.875,0.824,2.234,0.824,4.08c0,1.781-0.264,3.12-0.792,4.016c-0.528,0.896-1.384,1.345-2.567,1.345
		c-1.152,0-2.006-0.448-2.561-1.345c-0.555-0.896-0.821-2.239-0.8-4.031c0-0.576,0.019-1.091,0.056-1.544
		c0.037-0.454,0.102-0.861,0.192-1.225c0.09-0.362,0.213-0.686,0.368-0.968C260.345,230.474,260.534,230.215,260.758,229.98z
		 M261.638,238.348c0.331,0.363,0.763,0.544,1.297,0.544c0.352,0,0.658-0.077,0.92-0.231c0.261-0.155,0.477-0.408,0.647-0.761
		c0.171-0.352,0.299-0.808,0.384-1.367c0.086-0.561,0.128-1.24,0.128-2.04c0-0.801-0.042-1.48-0.128-2.04
		c-0.085-0.561-0.213-1.017-0.384-1.368c-0.171-0.353-0.387-0.605-0.647-0.76c-0.262-0.155-0.568-0.232-0.92-0.232
		c-0.363,0-0.675,0.077-0.937,0.232c-0.262,0.154-0.478,0.407-0.648,0.76c-0.17,0.352-0.296,0.808-0.376,1.368
		c-0.079,0.56-0.119,1.239-0.119,2.04C260.854,236.465,261.115,237.751,261.638,238.348z"/>
	<path fill="#B3B3B3" d="M271.271,238.684l-0.017-1.01v-4.521c0-0.011,0.017-0.674,0.048-1.988c-0.598,0.811-1.397,1.43-2.399,1.855
		c-0.277-0.181-0.454-0.426-0.528-0.735c0.726-0.438,1.347-0.929,1.864-1.473c0.517-0.544,0.872-1.045,1.063-1.504
		c0.171-0.042,0.36-0.063,0.568-0.063s0.397,0.021,0.568,0.063v8.366l-0.017,1.01l0.864-0.016h1.232
		c0.031,0.179,0.048,0.349,0.048,0.512s-0.017,0.328-0.048,0.496h-5.664c-0.032-0.168-0.049-0.336-0.049-0.504
		s0.017-0.336,0.049-0.504h1.552L271.271,238.684z"/>
	<path fill="#B3B3B3" d="M283.126,238.588c0,0.373-0.051,0.647-0.152,0.824c-0.102,0.176-0.327,0.264-0.68,0.264h-5.072
		c-0.373-0.288-0.56-0.555-0.56-0.8c-0.011-0.47,0.162-0.957,0.52-1.464s0.883-1.064,1.576-1.672l1.473-1.28
		c0.469-0.405,0.818-0.798,1.048-1.176c0.229-0.379,0.344-0.835,0.344-1.368c0-0.522-0.168-0.952-0.504-1.288
		s-0.75-0.504-1.24-0.504s-0.928,0.144-1.312,0.432c-0.385,0.288-0.688,0.672-0.912,1.152c-0.448-0.054-0.742-0.208-0.88-0.464
		c0.128-0.299,0.293-0.579,0.496-0.841c0.202-0.261,0.442-0.487,0.72-0.68c0.277-0.191,0.586-0.341,0.928-0.448
		c0.342-0.106,0.715-0.159,1.12-0.159s0.781,0.071,1.128,0.216c0.347,0.144,0.648,0.344,0.904,0.6s0.456,0.558,0.6,0.904
		c0.145,0.347,0.216,0.723,0.216,1.128s-0.05,0.763-0.151,1.072c-0.101,0.31-0.242,0.597-0.423,0.863
		c-0.181,0.268-0.396,0.521-0.646,0.761c-0.25,0.239-0.519,0.493-0.806,0.76l-1.275,1.104c-1.063,0.918-1.633,1.633-1.707,2.145
		c0.298-0.021,0.606-0.04,0.926-0.057c0.318-0.016,0.648-0.023,0.988-0.023H283.126z"/>
</g>
<g>
	<path fill="#FFFFFF" d="M244.472,5.239c0.364,0.504,0.609,0.91,0.735,1.218s0.241,0.696,0.347,1.165
		c0.104,0.47,0.186,0.984,0.241,1.544s0.084,1.12,0.084,1.68c0,1.078-0.122,2.059-0.367,2.94s-0.605,1.631-1.082,2.247
		c-0.476,0.616-1.057,1.092-1.742,1.428c-0.687,0.336-1.478,0.504-2.373,0.504c-1.288,0-2.373-0.23-3.255-0.693
		c0.056-0.854,0.364-1.49,0.927-1.91c0.688,0.294,1.397,0.44,2.129,0.44c0.94,0,1.65-0.321,2.128-0.966
		c0.478-0.644,0.737-1.533,0.78-2.667c-0.829,0.672-1.798,1.008-2.907,1.008c-1.11,0-2.005-0.374-2.687-1.123
		c-0.681-0.749-1.021-1.88-1.021-3.392c0-0.756,0.115-1.436,0.347-2.037c0.23-0.602,0.557-1.116,0.977-1.544
		c0.42-0.427,0.92-0.752,1.501-0.977c0.581-0.224,1.222-0.336,1.922-0.336C242.554,3.769,243.66,4.259,244.472,5.239z
		 M240.954,10.951c0.731,0,1.429-0.294,2.09-0.882V9.774c0-1.413-0.183-2.425-0.549-3.034c-0.366-0.608-0.887-0.913-1.563-0.913
		c-0.563,0-0.999,0.234-1.31,0.703c-0.31,0.47-0.464,1.103-0.464,1.9C239.159,10.111,239.757,10.951,240.954,10.951z"/>
	<path fill="#FFFFFF" d="M249.008,16.495c-0.126-0.182-0.23-0.315-0.314-0.399l-0.336-0.63c-0.28-0.616-0.477-1.309-0.589-2.079
		c-0.111-0.77-0.168-1.603-0.168-2.499c0-1.105,0.126-2.1,0.378-2.981c0.253-0.883,0.616-1.628,1.093-2.237
		c0.476-0.608,1.057-1.077,1.743-1.406c0.686-0.329,1.47-0.494,2.352-0.494c1.288,0,2.373,0.231,3.255,0.693
		c-0.057,0.854-0.365,1.491-0.927,1.911c-0.703-0.294-1.412-0.441-2.129-0.441c-1.826,0-2.803,1.211-2.93,3.633
		c0.843-0.672,1.819-1.008,2.929-1.008s2.005,0.378,2.686,1.134c0.682,0.757,1.022,1.891,1.022,3.402
		c0,0.742-0.116,1.414-0.347,2.017c-0.231,0.602-0.557,1.112-0.977,1.532s-0.921,0.746-1.502,0.977
		c-0.581,0.231-1.221,0.347-1.921,0.347C250.926,17.965,249.819,17.475,249.008,16.495z M250.436,11.959
		c0,2.632,0.676,3.948,2.027,3.948c0.633,0,1.102-0.234,1.404-0.704c0.302-0.469,0.454-1.103,0.454-1.9
		c0-1.68-0.599-2.52-1.795-2.52c-0.732,0-1.429,0.301-2.091,0.902V11.959z"/>
	<path fill="#FFFFFF" d="M259.277,17.545c-0.07-0.154-0.123-0.332-0.158-0.535s-0.053-0.41-0.053-0.62
		c0-0.224,0.018-0.438,0.053-0.641c0.035-0.202,0.088-0.381,0.158-0.535c0.447-0.224,0.938-0.336,1.47-0.336
		c0.546,0,1.043,0.112,1.491,0.336c0.14,0.322,0.21,0.714,0.21,1.176c0,0.448-0.07,0.833-0.21,1.155
		c-0.351,0.224-0.841,0.336-1.471,0.336S259.641,17.769,259.277,17.545z"/>
	<path fill="#FFFFFF" d="M272.191,15.024l0.021,1.323v1.323c-0.406,0.07-0.857,0.105-1.354,0.105s-0.935-0.035-1.313-0.105v-1.323
		l0.021-1.323l-1.344,0.043h-3.36c-0.405-0.658-0.608-1.177-0.608-1.555s0.133-0.875,0.398-1.491l3.466-8.105
		c0.392-0.084,0.857-0.07,1.396,0.042c0.538,0.112,0.913,0.28,1.123,0.504l-1.89,4.431c-0.714,1.793-1.345,3.095-1.891,3.906
		l0.063,0.084c0.812-0.084,1.68-0.126,2.604-0.126h0.021v-1.68c0-0.672,0.164-1.2,0.493-1.586c0.329-0.385,0.788-0.577,1.376-0.577
		h0.672l0.126,0.126v2.394l-0.021,1.323l1.093-0.021h0.818c0.056,0.294,0.084,0.644,0.084,1.05s-0.063,0.818-0.188,1.238H272.191z"
		/>
	<path fill="#FFFFFF" d="M279.143,6.373l-0.168,2.457c0.504-0.154,0.994-0.231,1.47-0.231c0.672,0,1.281,0.105,1.827,0.315
		s1.008,0.504,1.386,0.882c0.379,0.378,0.669,0.84,0.872,1.386s0.305,1.155,0.305,1.827c0,0.798-0.126,1.505-0.378,2.121
		s-0.616,1.134-1.093,1.554c-0.476,0.42-1.019,0.739-1.627,0.956c-0.609,0.217-1.25,0.325-1.922,0.325
		c-1.68,0-3.038-0.469-4.074-1.407c0.057-0.279,0.196-0.602,0.421-0.966c0.224-0.364,0.462-0.644,0.714-0.84
		c0.489,0.35,0.962,0.605,1.417,0.767s0.879,0.241,1.271,0.241c0.784,0,1.386-0.252,1.807-0.756c0.42-0.504,0.63-1.169,0.63-1.995
		c0-0.742-0.221-1.309-0.662-1.701c-0.44-0.392-0.977-0.588-1.606-0.588c-0.35,0-0.707,0.063-1.071,0.189
		c-0.363,0.126-0.714,0.322-1.05,0.588c-0.238-0.056-0.49-0.175-0.756-0.357c-0.266-0.182-0.469-0.378-0.608-0.588l0.336-6.342
		l0.168-0.147h7.371c0.126,0.336,0.188,0.715,0.188,1.135c0,0.784-0.392,1.176-1.176,1.176H279.143z"/>
	<path fill="#FFFFFF" d="M296.866,3.916c0.658,0.686,0.987,1.792,0.987,3.318c0,1.428-0.28,2.481-0.84,3.16
		c-0.561,0.679-1.33,1.019-2.31,1.019c-0.967,0-1.729-0.34-2.289-1.019c-0.561-0.679-0.841-1.732-0.841-3.16
		c0-1.4,0.27-2.443,0.809-3.13c0.539-0.686,1.313-1.028,2.321-1.028C295.628,3.076,296.349,3.356,296.866,3.916z M294.704,4.188
		c-1.135,0-1.701,1.022-1.701,3.066c0,2.03,0.566,3.045,1.701,3.045c1.147,0,1.722-1.015,1.722-3.045
		C296.426,5.211,295.852,4.188,294.704,4.188z M294.83,17.671l7.917-14.343c0.182-0.07,0.44-0.105,0.776-0.105
		c0.154,0,0.301,0.011,0.441,0.032c0.14,0.021,0.252,0.045,0.336,0.073l-7.896,14.343c-0.098,0.042-0.217,0.07-0.356,0.084
		c-0.141,0.014-0.287,0.021-0.441,0.021s-0.301-0.008-0.44-0.021C295.025,17.741,294.914,17.713,294.83,17.671z M306.568,17.083
		c-0.56,0.56-1.273,0.84-2.142,0.84c-0.98,0-1.75-0.339-2.311-1.019c-0.56-0.679-0.84-1.732-0.84-3.16
		c0-1.414,0.273-2.461,0.819-3.14s1.323-1.019,2.331-1.019s1.785,0.343,2.331,1.029c0.546,0.686,0.818,1.729,0.818,3.129
		C307.576,15.284,307.24,16.397,306.568,17.083z M304.405,10.699c-1.134,0-1.7,1.021-1.7,3.065c0,2.03,0.566,3.045,1.7,3.045
		c1.148,0,1.723-1.015,1.723-3.045C306.128,11.721,305.554,10.699,304.405,10.699z"/>
</g>
<g>
	<path fill="#B3B3B3" d="M134.858,238.588c0,0.373-0.051,0.647-0.152,0.824c-0.102,0.176-0.328,0.264-0.68,0.264h-5.072
		c-0.374-0.288-0.56-0.555-0.56-0.8c-0.011-0.47,0.163-0.957,0.52-1.464s0.883-1.064,1.576-1.672l1.472-1.28
		c0.469-0.405,0.818-0.798,1.048-1.176c0.229-0.379,0.344-0.835,0.344-1.368c0-0.522-0.168-0.952-0.504-1.288
		s-0.75-0.504-1.24-0.504c-0.491,0-0.928,0.144-1.312,0.432c-0.384,0.288-0.688,0.672-0.912,1.152
		c-0.448-0.054-0.742-0.208-0.88-0.464c0.128-0.299,0.293-0.579,0.496-0.841c0.202-0.261,0.442-0.487,0.72-0.68
		c0.277-0.191,0.586-0.341,0.928-0.448c0.341-0.106,0.714-0.159,1.12-0.159s0.781,0.071,1.128,0.216
		c0.346,0.144,0.648,0.344,0.904,0.6s0.456,0.558,0.6,0.904s0.216,0.723,0.216,1.128s-0.05,0.763-0.151,1.072
		s-0.242,0.597-0.423,0.863c-0.181,0.268-0.396,0.521-0.646,0.761c-0.25,0.239-0.518,0.493-0.805,0.76l-1.276,1.104
		c-1.063,0.918-1.632,1.633-1.707,2.145c0.298-0.021,0.606-0.04,0.925-0.057c0.319-0.016,0.648-0.023,0.989-0.023H134.858z"/>
	<path fill="#B3B3B3" d="M137.93,229.98c0.555-0.576,1.274-0.863,2.16-0.863c1.152,0,2.002,0.438,2.552,1.312
		c0.549,0.875,0.824,2.234,0.824,4.08c0,1.781-0.264,3.12-0.792,4.016c-0.528,0.896-1.384,1.345-2.568,1.345
		c-1.152,0-2.006-0.448-2.56-1.345c-0.555-0.896-0.822-2.239-0.8-4.031c0-0.576,0.019-1.091,0.056-1.544
		c0.037-0.454,0.101-0.861,0.192-1.225c0.09-0.362,0.213-0.686,0.368-0.968C137.517,230.474,137.706,230.215,137.93,229.98z
		 M138.81,238.348c0.331,0.363,0.763,0.544,1.296,0.544c0.352,0,0.658-0.077,0.92-0.231c0.261-0.155,0.477-0.408,0.648-0.761
		c0.17-0.352,0.298-0.808,0.384-1.367c0.085-0.561,0.128-1.24,0.128-2.04c0-0.801-0.042-1.48-0.128-2.04
		c-0.085-0.561-0.213-1.017-0.384-1.368c-0.171-0.353-0.387-0.605-0.648-0.76c-0.262-0.155-0.568-0.232-0.92-0.232
		c-0.363,0-0.675,0.077-0.936,0.232c-0.262,0.154-0.478,0.407-0.648,0.76c-0.17,0.352-0.296,0.808-0.376,1.368
		c-0.08,0.56-0.12,1.239-0.12,2.04C138.026,236.465,138.288,237.751,138.81,238.348z"/>
	<path fill="#B3B3B3" d="M148.442,238.684l-0.016-1.01v-4.521c0-0.011,0.016-0.674,0.048-1.988c-0.598,0.811-1.397,1.43-2.4,1.855
		c-0.277-0.181-0.454-0.426-0.528-0.735c0.725-0.438,1.346-0.929,1.864-1.473c0.517-0.544,0.872-1.045,1.064-1.504
		c0.17-0.042,0.36-0.063,0.568-0.063s0.397,0.021,0.568,0.063v8.366l-0.016,1.01l0.864-0.016h1.232
		c0.032,0.179,0.048,0.349,0.048,0.512s-0.016,0.328-0.048,0.496h-5.664c-0.032-0.168-0.048-0.336-0.048-0.504
		s0.016-0.336,0.048-0.504h1.552L148.442,238.684z"/>
	<path fill="#B3B3B3" d="M156.922,238.684l-0.016-1.01v-4.521c0-0.011,0.016-0.674,0.048-1.988c-0.598,0.811-1.397,1.43-2.4,1.855
		c-0.277-0.181-0.454-0.426-0.528-0.735c0.725-0.438,1.346-0.929,1.864-1.473c0.517-0.544,0.872-1.045,1.064-1.504
		c0.17-0.042,0.36-0.063,0.568-0.063s0.397,0.021,0.568,0.063v8.366l-0.016,1.01l0.864-0.016h1.232
		c0.032,0.179,0.048,0.349,0.048,0.512s-0.016,0.328-0.048,0.496h-5.664c-0.032-0.168-0.048-0.336-0.048-0.504
		s0.016-0.336,0.048-0.504h1.552L156.922,238.684z"/>
</g>
<circle fill="#333333" stroke="#3498DB" stroke-miterlimit="10" cx="31.19" cy="208.324" r="6"/>
<circle fill="#333333" stroke="#3498DB" stroke-miterlimit="10" cx="144.346" cy="140.624" r="8.732"/>
<circle fill="#333333" stroke="#3498DB" stroke-miterlimit="10" cx="267.174" cy="41.007" r="11.175"/>
<g>
	<path fill="#FFFFFF" d="M14.352,259.13l0.168,0.168v16.32c-0.496,0.111-1.12,0.168-1.872,0.168c-0.752,0-1.408-0.04-1.968-0.12
		l-4.416-9.288c-0.64-1.407-1.12-2.527-1.44-3.36l-0.096,0.024c0.176,2.256,0.264,4.433,0.264,6.528v6.096
		c-0.448,0.08-0.957,0.12-1.524,0.12s-1.06-0.04-1.476-0.12v-16.344c0.464-0.112,1.072-0.168,1.824-0.168s1.408,0.04,1.968,0.12
		l4.368,9.288l1.56,3.552l0.072-0.024c-0.16-2.319-0.24-4.512-0.24-6.576v-4.392c0-0.72,0.136-1.231,0.408-1.536
		c0.271-0.304,0.728-0.456,1.368-0.456H14.352z"/>
	<path fill="#FFFFFF" d="M18.504,272.138v-5.976c0-0.848-0.096-1.528-0.288-2.04c0.272-0.256,0.648-0.384,1.128-0.384
		c0.608,0,0.912,0.392,0.912,1.176v6.648c0,1.008,0.128,1.712,0.384,2.111c0.256,0.4,0.704,0.601,1.344,0.601
		c0.64,0,1.304-0.172,1.992-0.517c0.688-0.344,1.264-0.788,1.728-1.332v-8.52c0.096-0.032,0.224-0.056,0.384-0.072
		c0.16-0.016,0.328-0.024,0.504-0.024c0.176,0,0.34,0.009,0.492,0.024c0.152,0.017,0.284,0.04,0.396,0.072v8.448
		c0,1.279,0.224,2.136,0.672,2.567c-0.144,0.448-0.417,0.752-0.816,0.912c-0.784-0.256-1.289-0.848-1.512-1.776
		c-0.544,0.545-1.196,0.984-1.956,1.32c-0.76,0.336-1.524,0.504-2.292,0.504c-1.072,0-1.852-0.344-2.34-1.032
		C18.748,274.163,18.504,273.258,18.504,272.138z"/>
	<path fill="#FFFFFF" d="M31.08,264.722c0.112-0.416,0.368-0.752,0.768-1.008c0.896,0.336,1.472,1.048,1.728,2.136
		c0.656-1.407,1.728-2.111,3.216-2.111c0.336,0,0.704,0.032,1.104,0.096c0,0.688-0.136,1.248-0.408,1.68
		c-0.192-0.016-0.472-0.023-0.84-0.023c-1.296,0-2.272,0.729-2.928,2.184v7.992c-0.24,0.048-0.536,0.072-0.888,0.072
		s-0.648-0.024-0.888-0.072v-8.496C31.944,266.083,31.656,265.267,31.08,264.722z"/>
	<path fill="#FFFFFF" d="M38.976,274.754c0.016-0.496,0.249-0.928,0.698-1.296c0.723,0.416,1.369,0.704,1.939,0.864
		s1.088,0.24,1.554,0.24c0.401,0,0.75-0.052,1.048-0.156c0.297-0.104,0.55-0.24,0.759-0.408c0.208-0.168,0.369-0.355,0.481-0.564
		c0.113-0.207,0.177-0.415,0.193-0.624c0-0.479-0.149-0.884-0.446-1.212c-0.297-0.327-0.735-0.604-1.313-0.828l-1.349-0.527
		c-1.028-0.4-1.799-0.868-2.313-1.404c-0.514-0.536-0.771-1.18-0.771-1.932c0-0.496,0.104-0.948,0.312-1.356
		c0.208-0.408,0.496-0.756,0.864-1.044s0.8-0.512,1.296-0.672s1.04-0.24,1.632-0.24c1.184,0,2.368,0.265,3.552,0.792
		c0,0.561-0.184,1.024-0.552,1.393c-0.608-0.272-1.164-0.464-1.668-0.576c-0.504-0.112-0.964-0.168-1.38-0.168
		c-0.736,0-1.292,0.168-1.668,0.504s-0.564,0.72-0.564,1.152c0,0.464,0.144,0.827,0.432,1.092c0.288,0.264,0.744,0.516,1.368,0.756
		l1.416,0.552c1.983,0.784,2.976,1.944,2.976,3.48c0,1.072-0.408,1.904-1.224,2.496s-1.92,0.888-3.312,0.888
		C41.575,275.955,40.255,275.555,38.976,274.754z"/>
	<path fill="#FFFFFF" d="M59.063,270.315h-7.44c0.08,2.72,1.112,4.079,3.096,4.079c1.088,0,2.248-0.336,3.48-1.008
		c0.352,0.32,0.568,0.729,0.648,1.225c-1.313,0.896-2.784,1.344-4.416,1.344c-0.833,0-1.544-0.156-2.136-0.468
		c-0.592-0.313-1.076-0.744-1.452-1.296c-0.376-0.553-0.652-1.204-0.828-1.956c-0.176-0.752-0.264-1.576-0.264-2.473
		c0-0.912,0.108-1.743,0.324-2.496c0.216-0.752,0.532-1.399,0.948-1.943c0.416-0.544,0.916-0.968,1.5-1.272
		c0.584-0.304,1.252-0.456,2.004-0.456c0.736,0,1.396,0.132,1.98,0.396c0.584,0.264,1.072,0.624,1.464,1.08s0.692,1,0.9,1.632
		c0.208,0.632,0.312,1.308,0.312,2.028c0,0.287-0.012,0.563-0.036,0.827C59.124,269.823,59.095,270.075,59.063,270.315z
		 M51.624,268.947h5.736v-0.313c0-1.104-0.231-1.992-0.693-2.664s-1.155-1.008-2.079-1.008c-0.908,0-1.613,0.36-2.115,1.08
		S51.687,267.731,51.624,268.947z"/>
	<path fill="#FFFFFF" d="M73.247,272.93h4.464c0,0.48-0.032,0.889-0.096,1.225c-0.176,1.04-0.872,1.56-2.088,1.56h-5.832
		c-0.576,0-1.032-0.172-1.368-0.516s-0.504-0.813-0.504-1.404v-14.496l0.168-0.168h1.2c0.64,0,1.112,0.164,1.416,0.492
		c0.304,0.328,0.456,0.852,0.456,1.572v11.832C71.75,272.962,72.479,272.93,73.247,272.93z"/>
	<path fill="#FFFFFF" d="M82.343,265.539v10.128c-0.24,0.048-0.536,0.072-0.888,0.072s-0.648-0.024-0.888-0.072v-9.264
		c0-0.448-0.072-0.752-0.216-0.912s-0.4-0.24-0.768-0.24h-0.216c-0.064-0.176-0.096-0.392-0.096-0.648
		c0-0.255,0.032-0.479,0.096-0.672c0.304-0.031,0.552-0.06,0.744-0.084c0.192-0.023,0.344-0.036,0.456-0.036h0.192
		c0.496,0,0.884,0.156,1.164,0.469C82.203,264.59,82.343,265.01,82.343,265.539z M79.991,259.779c0.256-0.16,0.624-0.24,1.104-0.24
		c0.464,0,0.784,0.072,0.96,0.216c0.176,0.145,0.264,0.448,0.264,0.912s-0.096,0.772-0.288,0.924
		c-0.192,0.152-0.504,0.229-0.936,0.229c-0.384,0-0.692-0.061-0.924-0.181c-0.232-0.12-0.348-0.443-0.348-0.972
		C79.823,260.298,79.878,260.002,79.991,259.779z"/>
	<path fill="#FFFFFF" d="M92.927,268.058v-0.264c0-0.352-0.048-0.696-0.145-1.032c-0.097-0.336-0.245-0.632-0.446-0.888
		c-0.201-0.256-0.458-0.46-0.771-0.612c-0.313-0.151-0.688-0.228-1.121-0.228c-0.916,0-1.64,0.417-2.17,1.251
		s-0.795,2.021-0.795,3.562c0,1.539,0.261,2.69,0.783,3.452s1.232,1.144,2.132,1.144c0.947,0,2.03-0.448,3.25-1.345
		c0.434,0.257,0.714,0.633,0.843,1.128c-1.232,1.152-2.616,1.729-4.152,1.729c-0.768,0-1.44-0.152-2.016-0.456
		c-0.576-0.304-1.064-0.716-1.464-1.236c-0.4-0.52-0.7-1.136-0.9-1.848s-0.3-1.476-0.3-2.292c0-1.104,0.124-2.067,0.372-2.892
		c0.248-0.824,0.592-1.504,1.032-2.04s0.956-0.937,1.548-1.2c0.592-0.265,1.224-0.396,1.896-0.396c0.688,0,1.288,0.108,1.8,0.324
		c0.512,0.216,0.94,0.492,1.284,0.828c0.344,0.336,0.604,0.704,0.78,1.104c0.176,0.4,0.264,0.776,0.264,1.128
		c0,0.769-0.312,1.152-0.936,1.152C93.471,268.13,93.215,268.107,92.927,268.058z"/>
	<path fill="#FFFFFF" d="M106.103,270.315h-7.44c0.08,2.72,1.112,4.079,3.096,4.079c1.088,0,2.248-0.336,3.48-1.008
		c0.352,0.32,0.568,0.729,0.648,1.225c-1.313,0.896-2.784,1.344-4.416,1.344c-0.833,0-1.544-0.156-2.136-0.468
		c-0.592-0.313-1.076-0.744-1.452-1.296c-0.376-0.553-0.652-1.204-0.828-1.956c-0.176-0.752-0.264-1.576-0.264-2.473
		c0-0.912,0.108-1.743,0.324-2.496c0.216-0.752,0.532-1.399,0.948-1.943c0.416-0.544,0.916-0.968,1.5-1.272
		c0.584-0.304,1.252-0.456,2.004-0.456c0.736,0,1.396,0.132,1.98,0.396c0.584,0.264,1.072,0.624,1.464,1.08s0.692,1,0.9,1.632
		c0.208,0.632,0.312,1.308,0.312,2.028c0,0.287-0.012,0.563-0.036,0.827C106.163,269.823,106.134,270.075,106.103,270.315z
		 M98.663,268.947h5.736v-0.313c0-1.104-0.231-1.992-0.693-2.664s-1.155-1.008-2.079-1.008c-0.908,0-1.613,0.36-2.115,1.08
		S98.726,267.731,98.663,268.947z"/>
	<path fill="#FFFFFF" d="M118.726,267.434v5.952c0,0.912,0.088,1.593,0.264,2.04c-0.256,0.256-0.632,0.384-1.128,0.384
		c-0.608,0-0.912-0.392-0.912-1.176v-6.647c0-0.976-0.12-1.668-0.36-2.076c-0.24-0.408-0.696-0.612-1.368-0.612
		c-0.64,0-1.304,0.172-1.992,0.517c-0.688,0.344-1.264,0.788-1.728,1.332v8.52c-0.24,0.048-0.537,0.072-0.888,0.072
		c-0.352,0-0.648-0.024-0.888-0.072v-11.712l0.144-0.145h0.672c0.384,0,0.64,0.101,0.768,0.301s0.192,0.516,0.192,0.947v0.336
		c0.543-0.512,1.184-0.924,1.92-1.235c0.736-0.313,1.472-0.468,2.208-0.468c1.072,0,1.856,0.344,2.352,1.031
		C118.478,265.411,118.726,266.315,118.726,267.434z"/>
	<path fill="#FFFFFF" d="M121.583,274.754c0.016-0.496,0.249-0.928,0.698-1.296c0.723,0.416,1.369,0.704,1.939,0.864
		s1.088,0.24,1.554,0.24c0.401,0,0.75-0.052,1.048-0.156c0.297-0.104,0.55-0.24,0.759-0.408c0.208-0.168,0.369-0.355,0.481-0.564
		c0.113-0.207,0.177-0.415,0.193-0.624c0-0.479-0.149-0.884-0.446-1.212c-0.297-0.327-0.735-0.604-1.313-0.828l-1.349-0.527
		c-1.028-0.4-1.799-0.868-2.313-1.404c-0.514-0.536-0.771-1.18-0.771-1.932c0-0.496,0.104-0.948,0.312-1.356
		c0.208-0.408,0.496-0.756,0.864-1.044s0.8-0.512,1.296-0.672s1.04-0.24,1.632-0.24c1.184,0,2.368,0.265,3.552,0.792
		c0,0.561-0.184,1.024-0.552,1.393c-0.608-0.272-1.164-0.464-1.668-0.576c-0.504-0.112-0.964-0.168-1.38-0.168
		c-0.736,0-1.292,0.168-1.668,0.504s-0.564,0.72-0.564,1.152c0,0.464,0.144,0.827,0.432,1.092c0.288,0.264,0.744,0.516,1.368,0.756
		l1.416,0.552c1.983,0.784,2.976,1.944,2.976,3.48c0,1.072-0.408,1.904-1.224,2.496s-1.92,0.888-3.312,0.888
		C124.182,275.955,122.862,275.555,121.583,274.754z"/>
	<path fill="#FFFFFF" d="M133.102,272.138v-5.976c0-0.848-0.096-1.528-0.288-2.04c0.272-0.256,0.648-0.384,1.128-0.384
		c0.608,0,0.912,0.392,0.912,1.176v6.648c0,1.008,0.128,1.712,0.384,2.111c0.256,0.4,0.704,0.601,1.344,0.601
		c0.64,0,1.304-0.172,1.992-0.517c0.688-0.344,1.264-0.788,1.728-1.332v-8.52c0.096-0.032,0.224-0.056,0.384-0.072
		c0.16-0.016,0.328-0.024,0.504-0.024c0.176,0,0.34,0.009,0.492,0.024c0.152,0.017,0.284,0.04,0.396,0.072v8.448
		c0,1.279,0.224,2.136,0.672,2.567c-0.144,0.448-0.417,0.752-0.816,0.912c-0.784-0.256-1.289-0.848-1.512-1.776
		c-0.544,0.545-1.196,0.984-1.956,1.32c-0.76,0.336-1.524,0.504-2.292,0.504c-1.072,0-1.852-0.344-2.34-1.032
		C133.346,274.163,133.102,273.258,133.102,272.138z"/>
	<path fill="#FFFFFF" d="M145.678,264.722c0.112-0.416,0.368-0.752,0.768-1.008c0.896,0.336,1.472,1.048,1.728,2.136
		c0.656-1.407,1.728-2.111,3.216-2.111c0.336,0,0.704,0.032,1.104,0.096c0,0.688-0.136,1.248-0.408,1.68
		c-0.192-0.016-0.472-0.023-0.84-0.023c-1.296,0-2.272,0.729-2.928,2.184v7.992c-0.24,0.048-0.536,0.072-0.888,0.072
		s-0.648-0.024-0.888-0.072v-8.496C146.542,266.083,146.254,265.267,145.678,264.722z"/>
	<path fill="#FFFFFF" d="M162.718,270.315h-7.439c0.08,2.72,1.112,4.079,3.096,4.079c1.088,0,2.248-0.336,3.479-1.008
		c0.353,0.32,0.568,0.729,0.648,1.225c-1.313,0.896-2.784,1.344-4.416,1.344c-0.833,0-1.544-0.156-2.136-0.468
		c-0.592-0.313-1.076-0.744-1.452-1.296c-0.376-0.553-0.652-1.204-0.828-1.956c-0.176-0.752-0.264-1.576-0.264-2.473
		c0-0.912,0.108-1.743,0.324-2.496c0.216-0.752,0.532-1.399,0.948-1.943c0.416-0.544,0.916-0.968,1.5-1.272
		c0.584-0.304,1.252-0.456,2.004-0.456c0.736,0,1.396,0.132,1.98,0.396c0.584,0.264,1.071,0.624,1.464,1.08
		c0.392,0.456,0.691,1,0.9,1.632c0.207,0.632,0.312,1.308,0.312,2.028c0,0.287-0.012,0.563-0.036,0.827
		C162.778,269.823,162.75,270.075,162.718,270.315z M155.278,268.947h5.735v-0.313c0-1.104-0.231-1.992-0.693-2.664
		s-1.155-1.008-2.079-1.008c-0.908,0-1.613,0.36-2.115,1.08S155.342,267.731,155.278,268.947z"/>
	<path fill="#FFFFFF" d="M174.669,271.563l-0.023,1.487l1.68-0.048h5.88c0,0.513-0.024,0.904-0.072,1.176
		c-0.176,1.024-0.864,1.536-2.063,1.536h-6.744c-0.576,0-1.028-0.172-1.356-0.516s-0.492-0.813-0.492-1.404v-14.352l0.169-0.168
		h10.008c0.079,0.399,0.12,0.827,0.12,1.283s-0.089,0.933-0.265,1.429h-6.863l0.023,1.655v2.473l1.561-0.024h4.056
		c0.128,0.368,0.191,0.809,0.191,1.32s-0.063,0.952-0.191,1.32h-5.616V271.563z"/>
	<path fill="#FFFFFF" d="M191.205,263.907c0.16-0.08,0.399-0.12,0.72-0.12c0.177,0,0.345,0.012,0.505,0.036
		c0.159,0.023,0.295,0.068,0.407,0.132l0.072,0.144l-3.384,5.328l3.912,5.977c-0.433,0.288-0.832,0.432-1.2,0.432
		c-0.384,0-0.696-0.176-0.937-0.528l-2.855-4.416l-3,4.801c-0.08,0.031-0.18,0.056-0.3,0.071s-0.261,0.024-0.42,0.024
		c-0.177,0-0.345-0.012-0.504-0.036c-0.16-0.024-0.305-0.068-0.433-0.132l-0.072-0.145l3.816-5.976l-3.48-5.376
		c0.4-0.288,0.784-0.432,1.152-0.432c0.416,0,0.736,0.184,0.96,0.552l2.473,3.815L191.205,263.907z"/>
	<path fill="#FFFFFF" d="M204.477,274.922c-0.176,0.448-0.448,0.752-0.815,0.912c-0.784-0.288-1.28-0.848-1.488-1.68
		c-1.232,1.2-2.44,1.8-3.624,1.8c-0.608,0-1.136-0.096-1.584-0.288s-0.82-0.447-1.116-0.768s-0.52-0.688-0.672-1.104
		s-0.228-0.855-0.228-1.32c0-0.64,0.107-1.203,0.323-1.691c0.217-0.488,0.513-0.892,0.889-1.212c0.375-0.32,0.819-0.561,1.332-0.721
		c0.512-0.159,1.063-0.239,1.655-0.239c1.2,0,2.176,0.071,2.929,0.216v-1.207c0-1.644-0.721-2.465-2.16-2.465
		c-1.104,0-2.408,0.336-3.912,1.008c-0.416-0.368-0.624-0.832-0.624-1.393c1.728-0.751,3.296-1.128,4.704-1.128
		c2.479,0,3.72,1.337,3.72,4.009v4.943c-0.016,0.576,0.036,1.053,0.156,1.429S204.253,274.699,204.477,274.922z M202.077,272.523
		v-2.4c-0.383-0.063-0.781-0.108-1.195-0.132c-0.414-0.024-0.852-0.036-1.313-0.036c-0.908,0-1.602,0.212-2.079,0.636
		s-0.717,0.98-0.717,1.668c0,0.672,0.168,1.204,0.502,1.597c0.335,0.392,0.788,0.588,1.362,0.588c0.589,0,1.19-0.164,1.804-0.492
		S201.599,273.147,202.077,272.523z"/>
	<path fill="#FFFFFF" d="M214.485,267.987c0-0.96-0.124-1.648-0.372-2.064s-0.652-0.624-1.212-0.624
		c-0.545,0-1.108,0.168-1.692,0.504s-1.084,0.792-1.5,1.368v8.496c-0.24,0.048-0.536,0.072-0.888,0.072
		c-0.353,0-0.648-0.024-0.889-0.072v-11.688l0.145-0.168h0.672c0.384,0,0.64,0.101,0.768,0.301s0.192,0.516,0.192,0.947v0.36
		c1.008-1.152,2.176-1.728,3.504-1.728s2.232,0.6,2.712,1.8c1.312-1.2,2.608-1.8,3.889-1.8c1.008,0,1.76,0.34,2.256,1.02
		c0.495,0.681,0.744,1.572,0.744,2.676v6c0,0.912,0.096,1.593,0.287,2.04c-0.271,0.256-0.647,0.384-1.128,0.384
		c-0.607,0-0.911-0.392-0.911-1.176v-6.672c0-0.96-0.125-1.644-0.372-2.052c-0.249-0.408-0.652-0.612-1.213-0.612
		c-0.544,0-1.104,0.16-1.68,0.48s-1.088,0.768-1.536,1.344v8.544c-0.239,0.048-0.536,0.072-0.888,0.072
		c-0.353,0-0.648-0.024-0.888-0.072V267.987z"/>
	<path fill="#FFFFFF" d="M228.885,265.539v10.128c-0.24,0.048-0.536,0.072-0.889,0.072c-0.352,0-0.647-0.024-0.888-0.072v-9.264
		c0-0.448-0.072-0.752-0.216-0.912c-0.145-0.16-0.4-0.24-0.769-0.24h-0.216c-0.063-0.176-0.096-0.392-0.096-0.648
		c0-0.255,0.032-0.479,0.096-0.672c0.304-0.031,0.552-0.06,0.744-0.084c0.192-0.023,0.344-0.036,0.456-0.036h0.192
		c0.495,0,0.884,0.156,1.164,0.469C228.744,264.59,228.885,265.01,228.885,265.539z M226.532,259.779
		c0.256-0.16,0.624-0.24,1.104-0.24c0.464,0,0.783,0.072,0.96,0.216c0.176,0.145,0.264,0.448,0.264,0.912s-0.096,0.772-0.288,0.924
		c-0.191,0.152-0.504,0.229-0.936,0.229c-0.384,0-0.692-0.061-0.924-0.181c-0.232-0.12-0.349-0.443-0.349-0.972
		C226.364,260.298,226.42,260.002,226.532,259.779z"/>
	<path fill="#FFFFFF" d="M242.061,267.434v5.952c0,0.912,0.088,1.593,0.264,2.04c-0.256,0.256-0.632,0.384-1.128,0.384
		c-0.608,0-0.912-0.392-0.912-1.176v-6.647c0-0.976-0.12-1.668-0.359-2.076c-0.24-0.408-0.696-0.612-1.368-0.612
		c-0.641,0-1.305,0.172-1.992,0.517c-0.688,0.344-1.264,0.788-1.728,1.332v8.52c-0.24,0.048-0.537,0.072-0.889,0.072
		s-0.647-0.024-0.888-0.072v-11.712l0.144-0.145h0.673c0.384,0,0.64,0.101,0.768,0.301s0.192,0.516,0.192,0.947v0.336
		c0.543-0.512,1.184-0.924,1.92-1.235c0.735-0.313,1.472-0.468,2.208-0.468c1.071,0,1.855,0.344,2.352,1.031
		C241.813,265.411,242.061,266.315,242.061,267.434z"/>
	<path fill="#FFFFFF" d="M254.78,274.922c-0.176,0.448-0.448,0.752-0.815,0.912c-0.784-0.288-1.28-0.848-1.488-1.68
		c-1.232,1.2-2.44,1.8-3.624,1.8c-0.608,0-1.136-0.096-1.584-0.288s-0.82-0.447-1.116-0.768s-0.52-0.688-0.672-1.104
		s-0.228-0.855-0.228-1.32c0-0.64,0.107-1.203,0.323-1.691c0.217-0.488,0.513-0.892,0.889-1.212c0.375-0.32,0.819-0.561,1.332-0.721
		c0.512-0.159,1.063-0.239,1.655-0.239c1.2,0,2.176,0.071,2.929,0.216v-1.207c0-1.644-0.721-2.465-2.16-2.465
		c-1.104,0-2.408,0.336-3.912,1.008c-0.416-0.368-0.624-0.832-0.624-1.393c1.728-0.751,3.296-1.128,4.704-1.128
		c2.479,0,3.72,1.337,3.72,4.009v4.943c-0.016,0.576,0.036,1.053,0.156,1.429S254.557,274.699,254.78,274.922z M252.381,272.523
		v-2.4c-0.383-0.063-0.781-0.108-1.195-0.132c-0.414-0.024-0.852-0.036-1.313-0.036c-0.908,0-1.602,0.212-2.079,0.636
		s-0.717,0.98-0.717,1.668c0,0.672,0.168,1.204,0.502,1.597c0.335,0.392,0.788,0.588,1.362,0.588c0.589,0,1.19-0.164,1.804-0.492
		S251.902,273.147,252.381,272.523z"/>
	<path fill="#FFFFFF" d="M263.133,263.882c0.048,0.24,0.072,0.468,0.072,0.685c0,0.216-0.024,0.443-0.072,0.684l-3.048-0.024v8.064
		c0,0.672,0.312,1.008,0.936,1.008h1.824c0.111,0.272,0.168,0.544,0.168,0.816s-0.016,0.44-0.048,0.504
		c-0.736,0.096-1.496,0.144-2.28,0.144c-1.552,0-2.328-0.663-2.328-1.992v-8.544l-1.704,0.024c-0.048-0.24-0.071-0.468-0.071-0.684
		c0-0.217,0.023-0.444,0.071-0.685l1.704,0.024v-2.521c0-0.432,0.064-0.739,0.192-0.924c0.128-0.184,0.376-0.276,0.744-0.276h0.647
		l0.145,0.145v3.6L263.133,263.882z"/>
	<path fill="#FFFFFF" d="M268.269,265.539v10.128c-0.24,0.048-0.536,0.072-0.889,0.072c-0.352,0-0.647-0.024-0.888-0.072v-9.264
		c0-0.448-0.072-0.752-0.216-0.912c-0.145-0.16-0.4-0.24-0.769-0.24h-0.216c-0.063-0.176-0.096-0.392-0.096-0.648
		c0-0.255,0.032-0.479,0.096-0.672c0.304-0.031,0.552-0.06,0.744-0.084c0.192-0.023,0.344-0.036,0.456-0.036h0.192
		c0.495,0,0.884,0.156,1.164,0.469C268.128,264.59,268.269,265.01,268.269,265.539z M265.916,259.779
		c0.256-0.16,0.624-0.24,1.104-0.24c0.464,0,0.783,0.072,0.96,0.216c0.176,0.145,0.264,0.448,0.264,0.912s-0.096,0.772-0.288,0.924
		c-0.191,0.152-0.504,0.229-0.936,0.229c-0.384,0-0.692-0.061-0.924-0.181c-0.232-0.12-0.349-0.443-0.349-0.972
		C265.748,260.298,265.804,260.002,265.916,259.779z"/>
	<path fill="#FFFFFF" d="M279.86,274.682c-0.849,0.849-1.952,1.272-3.313,1.272c-0.8,0-1.508-0.152-2.124-0.456
		c-0.615-0.304-1.136-0.724-1.56-1.26s-0.744-1.185-0.96-1.944s-0.324-1.596-0.324-2.508s0.108-1.748,0.324-2.508
		s0.536-1.412,0.96-1.956s0.944-0.968,1.56-1.272c0.616-0.304,1.324-0.456,2.124-0.456c0.801,0,1.508,0.152,2.124,0.456
		c0.616,0.305,1.137,0.729,1.561,1.272s0.748,1.196,0.972,1.956s0.336,1.596,0.336,2.508
		C281.54,271.931,280.98,273.563,279.86,274.682z M276.561,274.563c1.027,0,1.811-0.437,2.349-1.309s0.807-2.028,0.807-3.468
		c0-0.64-0.06-1.252-0.181-1.836c-0.12-0.584-0.309-1.096-0.565-1.536c-0.258-0.439-0.587-0.788-0.988-1.044
		s-0.884-0.384-1.445-0.384c-0.546,0-1.016,0.124-1.409,0.372c-0.395,0.248-0.719,0.588-0.976,1.02
		c-0.258,0.432-0.446,0.94-0.566,1.524c-0.121,0.584-0.181,1.212-0.181,1.884s0.06,1.296,0.181,1.872
		c0.12,0.576,0.305,1.08,0.554,1.512s0.574,0.772,0.976,1.021S275.998,274.563,276.561,274.563z"/>
	<path fill="#FFFFFF" d="M293.9,267.434v5.952c0,0.912,0.088,1.593,0.264,2.04c-0.256,0.256-0.632,0.384-1.128,0.384
		c-0.608,0-0.912-0.392-0.912-1.176v-6.647c0-0.976-0.12-1.668-0.359-2.076c-0.24-0.408-0.696-0.612-1.368-0.612
		c-0.641,0-1.305,0.172-1.992,0.517c-0.688,0.344-1.264,0.788-1.728,1.332v8.52c-0.24,0.048-0.537,0.072-0.889,0.072
		s-0.647-0.024-0.888-0.072v-11.712l0.144-0.145h0.673c0.384,0,0.64,0.101,0.768,0.301s0.192,0.516,0.192,0.947v0.336
		c0.543-0.512,1.184-0.924,1.92-1.235c0.735-0.313,1.472-0.468,2.208-0.468c1.071,0,1.855,0.344,2.352,1.031
		C293.652,265.411,293.9,266.315,293.9,267.434z"/>
</g>
<path d="M31.19,208.324"/>
<g>
</g>
<g>
</g>
<g>
</g>
<g>
</g>
<g>
</g>
<g>
</g>
<g>
</g>
<g>
</g>
<g>
</g>
<g>
</g>
<g>
</g>
<g>
</g>
<g>
</g>
<g>
</g>
<g>
</g>
</svg>
