<?xml version="1.0" encoding="utf-8"?>
<!-- Generator: Adobe Illustrator 18.0.0, SVG Export Plug-In . SVG Version: 6.00 Build 0)  -->
<!DOCTYPE svg PUBLIC "-//W3C//DTD SVG 1.1//EN" "http://www.w3.org/Graphics/SVG/1.1/DTD/svg11.dtd">
<svg version="1.1" id="Layer_1" xmlns="http://www.w3.org/2000/svg" xmlns:xlink="http://www.w3.org/1999/xlink" x="0px" y="0px"
	 viewBox="0 0 125 125" enable-background="new 0 0 125 125" xml:space="preserve">
<g>
	<circle fill="#3583A5" cx="62.5" cy="62.5" r="62.5"/>
	<g>
		<path fill="#FFFFFF" d="M85.5,60V36l-6.2-2v-2.3l-14.8-4.9l-12.3,3.5v2.1L46.2,34v22.4l-13.3,1.8V95l18.7,2.3l0-0.1l3.3-0.4V86.4
			l5.2-0.3v10.1l3.5-0.4v-9.9l4.7-0.3v9.6l2.3-0.2l0-18.2h8.8v16.5l3.2-0.4v-8.4l3.6-0.2v8.2l2.5-0.3v-8.1l3.3-0.2v7.8l2.1-0.3V61.2
			L85.5,60z M37,83.1L34.3,83v-2.4l2.7,0.1V83.1z M37,78.9l-2.7,0v-2.4l2.7,0V78.9z M37,74.7l-2.7,0v-2.4l2.7-0.1V74.7z M37,70.6
			l-2.7,0.1v-2.4l2.7-0.2V70.6z M37,66.2l-2.7,0.2V64l2.7-0.2V66.2z M41.3,83.2l-2.9-0.1v-2.5l2.9,0.1V83.2z M41.3,78.9l-2.9,0v-2.5
			l2.9,0V78.9z M41.3,74.6l-2.9,0.1v-2.5l2.9-0.1V74.6z M41.3,70.3l-2.9,0.1v-2.5l2.9-0.2V70.3z M41.3,65.9l-2.9,0.2v-2.5l2.9-0.2
			V65.9z M45.7,83.4l-3-0.1v-2.6l3,0.1V83.4z M45.7,78.9l-3,0v-2.6l3,0V78.9z M45.7,74.5l-3,0V72l3-0.1V74.5z M45.7,70.1l-3,0.1
			v-2.6l3-0.2V70.1z M45.7,65.6l-3,0.2v-2.6l3-0.3V65.6z M48.6,37.1l3.5-0.9v5.3l-3.5,0.7V37.1z M48.6,45.5l3.5-0.7v5.3l-3.5,0.6
			V45.5z M50.4,83.6l-3.2-0.1v-2.6l3.2,0.1V83.6z M50.4,79l-3.2,0v-2.6l3.2,0V79z M50.4,74.4l-3.2,0.1v-2.6l3.2-0.1V74.4z M50.4,70
			l-3.2,0.1v-2.6l3.2-0.2V70z M50.4,65.2l-3.2,0.2v-2.6l3.2-0.3V65.2z M52.1,55.9l-0.8-0.1l-2.6,0.3V54l3.5-0.5V55.9z M62.4,70.4
			v-2.7l2.8,0.2v2.6L62.4,70.4z M65.2,72.1v2.6l-2.8-0.1V72L65.2,72.1z M65.2,63.7v2.6l-2.8-0.2v-2.7L65.2,63.7z M63,57.3L59,56.8
			v-4.2L63,52V57.3z M59,34.6l3.9-1v5.7L59,40.2V34.6z M59,43.5l3.9-0.8v5.7L59,49V43.5z M53.8,35.9l3.7-0.9v5.5l-3.7,0.8V35.9z
			 M53.8,44.5l3.7-0.7v5.5l-3.7,0.6V44.5z M53.2,62.6l3.2,0.3v2.8l-3.2-0.2V62.6z M53.3,67.2l3.2,0.2v2.8L53.3,70V67.2z M56.5,71.7
			v2.7l-3.2,0v-2.8L56.5,71.7z M53.3,76.3l3.2,0v2.8l-3.2,0V76.3z M56.6,83.6l-3.2,0.1v-2.8l3.2-0.1V83.6z M57.5,56.6l-3.7-0.5v-2.9
			l3.7-0.5V56.6z M58.1,63l3,0.3V66l-3-0.2V63z M58.1,67.5l3,0.2v2.7l-3-0.1V67.5z M61.1,71.9v2.7l-3,0v-2.7L61.1,71.9z M58.1,76.4
			l3,0V79l-3,0V76.4z M61.2,83.4l-3,0.1v-2.7l3-0.1V83.4z M62.3,76.5l2.8,0v2.6l-2.8,0V76.5z M65.2,83.2l-2.8,0.1v-2.7l2.8-0.1V83.2
			z M66.3,33.7l3.8,1.1v5.4l-3.8-1V33.7z M66.4,43l3.8,0.9v5.3l-3.8-0.7V43z M69.2,66.5l-2.7-0.2v-2.6l2.7,0.2V66.5z M69.2,68.1v2.5
			l-2.7-0.1V68L69.2,68.1z M69.2,72.2v2.5l-2.7,0v-2.6L69.2,72.2z M69.2,76.5V79l-2.7,0v-2.6L69.2,76.5z M69.2,83.1l-2.7,0.1v-2.6
			l2.7-0.1V83.1z M70.2,58.1l-3.8-0.5v-5.5l3.8,0.6V58.1z M90.6,65.8l1.9,0.2v2.1L90.6,68V65.8z M92.5,69.5v2.1l-1.9-0.1v-2.2
			L92.5,69.5z M90.6,72.8l1.9,0.1V75l-1.9,0V72.8z M87.7,65.6l2,0.2v2.2l-2-0.1V65.6z M89.7,69.3v2.2l-2-0.1v-2.2L89.7,69.3z
			 M87.7,72.7l2,0.1V75l-2,0V72.7z M76.6,36.7l3.3,1v5l-3.3-0.9V36.7z M80,46.1v5l-3.3-0.7v-5.1L80,46.1z M75.4,53.7v5.1l-3.5-0.5
			v-5.3L75.4,53.7z M75.3,50.2l-3.5-0.7v-5.3l3.5,0.8V50.2z M71.7,35.3l3.5,1v5.2l-3.5-0.9V35.3z M79.5,74.9l-8.9-0.1v-2.5l8.9,0.2
			V74.9z M79.6,71.2l-9-0.5v-2.5l9,0.6V71.2z M79.7,67.2l-9.1-0.6v-2.5l9.1,0.7V67.2z M80.1,59.4l-3.3-0.5v-5.1l3.3,0.5V59.4z
			 M81.4,38.1l3.1,0.9v4.8L81.4,43V38.1z M84.6,47.1V52l-3.1-0.6v-4.9L84.6,47.1z M81.5,65l2.2,0.2v2.3l-2.2-0.2V65z M81.5,68.8
			l2.2,0.1v2.3l-2.2-0.1V68.8z M83.7,72.5v2.3l-2.2,0v-2.3L83.7,72.5z M81.5,76.3l2.2,0v2.3l-2.2,0V76.3z M83.8,82.3l-2.2,0.1v-2.3
			l2.2,0V82.3z M84.6,60l-3.1-0.4v-4.9l3.1,0.5V60z M84.8,65.3l2.1,0.2v2.2l-2.1-0.1V65.3z M84.8,69l2.1,0.1v2.2l-2.1-0.1V69z
			 M86.9,72.6v2.2l-2.1,0v-2.3L86.9,72.6z M84.8,76.4l2.1,0v2.2l-2.1,0V76.4z M86.9,82.2l-2.1,0.1V80l2.1-0.1V82.2z M87.7,76.4l2,0
			v2.2l-2,0V76.4z M89.7,82.1l-2,0.1V80l2,0V82.1z M90.6,76.4l1.9,0v2.1l-1.9,0V76.4z M92.5,82.1l-1.9,0.1V80l1.9,0V82.1z
			 M92.5,82.1"/>
	</g>
</g>
</svg>
