<?xml version="1.0" encoding="utf-8"?>
<!-- Generator: Adobe Illustrator 18.1.0, SVG Export Plug-In . SVG Version: 6.00 Build 0)  -->
<svg version="1.1" id="Artwork" xmlns="http://www.w3.org/2000/svg" xmlns:xlink="http://www.w3.org/1999/xlink" x="0px" y="0px"
	 viewBox="-49 141 512 512" enable-background="new -49 141 512 512" xml:space="preserve">
<g>
	<path fill="#CCCCCC" d="M140.4,422.3c0-6.1-5-11.1-11.1-11.1H90.7c-6.1,0-11.1,5-11.1,11.1V461c0,6.1,5,11.1,11.1,11.1h38.7
		c6.1,0,11.1-5,11.1-11.1L140.4,422.3L140.4,422.3z"/>
	<path fill="#CCCCCC" d="M237.1,422.3c0-6.1-5-11.1-11.1-11.1h-38.7c-6.1,0-11.1,5-11.1,11.1V461c0,6.1,5,11.1,11.1,11.1H226
		c6.1,0,11.1-5,11.1-11.1V422.3z"/>
	<path fill="#CCCCCC" d="M333.7,422.3c0-6.1-5-11.1-11.1-11.1H284c-6.1,0-11.1,5-11.1,11.1V461c0,6.1,5,11.1,11.1,11.1h38.7
		c6.1,0,11.1-5,11.1-11.1V422.3z"/>
	<path fill="#CCCCCC" d="M140.4,519c0-6.1-5-11.1-11.1-11.1H90.7c-6.1,0-11.1,5-11.1,11.1v38.7c0,6.1,5,11.1,11.1,11.1h38.7
		c6.1,0,11.1-5,11.1-11.1L140.4,519L140.4,519z"/>
	<path fill="#CCCCCC" d="M237.1,519c0-6.1-5-11.1-11.1-11.1h-38.7c-6.1,0-11.1,5-11.1,11.1v38.7c0,6.1,5,11.1,11.1,11.1H226
		c6.1,0,11.1-5,11.1-11.1V519z"/>
	<path fill="#CCCCCC" d="M333.7,519c0-6.1-5-11.1-11.1-11.1H284c-6.1,0-11.1,5-11.1,11.1v38.7c0,6.1,5,11.1,11.1,11.1h38.7
		c6.1,0,11.1-5,11.1-11.1L333.7,519L333.7,519z"/>
	<path fill="#CCCCCC" d="M402.8,207.4v59c0,26.7-21.7,48.2-48.3,48.2H324c-26.7,0-48.6-21.5-48.6-48.2v-59.3H137.9v59.3
		c0,26.7-21.9,48.2-48.6,48.2H58.8c-26.7,0-48.3-21.5-48.3-48.2v-59c-23.3,0.7-42.5,20-42.5,43.7v346.1c0,24.2,19.6,44,43.8,44
		h389.8c24.1,0,43.8-19.9,43.8-44V251.1C445.3,227.4,426.2,208.1,402.8,207.4z M388.7,575.6c0,10.4-8.5,18.9-18.9,18.9h-327
		c-10.4,0-18.9-8.5-18.9-18.9V396.8c0-10.4,8.5-18.9,18.9-18.9h327c10.4,0,18.9,8.5,18.9,18.9L388.7,575.6L388.7,575.6z"/>
	<path fill="#CCCCCC" d="M58.7,282.9h30.2c9.2,0,16.6-7.4,16.6-16.6v-96.8c0-9.2-7.4-16.6-16.6-16.6H58.7c-9.2,0-16.6,7.4-16.6,16.6
		v96.8C42.1,275.5,49.6,282.9,58.7,282.9z"/>
	<path fill="#CCCCCC" d="M323.6,282.9h30.2c9.1,0,16.6-7.4,16.6-16.6v-96.8c0-9.2-7.4-16.6-16.6-16.6h-30.2
		c-9.2,0-16.6,7.4-16.6,16.6v96.8C307,275.5,314.5,282.9,323.6,282.9z"/>
</g>
</svg>
