<?xml version="1.0" encoding="utf-8"?>
<!-- Generator: Adobe Illustrator 18.0.0, SVG Export Plug-In . SVG Version: 6.00 Build 0)  -->
<!DOCTYPE svg PUBLIC "-//W3C//DTD SVG 1.1//EN" "http://www.w3.org/Graphics/SVG/1.1/DTD/svg11.dtd">
<svg version="1.1" id="Layer_1" xmlns="http://www.w3.org/2000/svg" xmlns:xlink="http://www.w3.org/1999/xlink" x="0px" y="0px"
	 width="36.653px" height="36.653px" viewBox="0 0 36.653 36.653" enable-background="new 0 0 36.653 36.653" xml:space="preserve">
<g>
	<circle fill="#333333" cx="18.313" cy="19.255" r="16.341"/>
	<g>
		<path fill="#EFB014" d="M18.328,0C8.204,0,0,8.204,0,18.328c0,10.121,8.204,18.325,18.328,18.325
			c10.121,0,18.325-8.204,18.325-18.325C36.653,8.204,28.449,0,18.328,0L18.328,0z M25.318,9.332l-2.534,0.002
			c-1.988,0-2.373,0.945-2.373,2.331v3.056h4.74l-0.002,4.788h-4.738V31.79h-4.943V19.506h-4.132V14.72h4.132v-3.53
			c0-4.096,2.503-6.328,6.157-6.328l3.695,0.006v4.464H25.318z M25.318,9.332"/>
	</g>
</g>
<g>
</g>
<g>
</g>
<g>
</g>
<g>
</g>
<g>
</g>
<g>
</g>
<g>
</g>
<g>
</g>
<g>
</g>
<g>
</g>
<g>
</g>
<g>
</g>
<g>
</g>
<g>
</g>
<g>
</g>
</svg>
