<?xml version="1.0" encoding="utf-8"?>
<!-- Generator: Adobe Illustrator 18.0.0, SVG Export Plug-In . SVG Version: 6.00 Build 0)  -->
<!DOCTYPE svg PUBLIC "-//W3C//DTD SVG 1.1//EN" "http://www.w3.org/Graphics/SVG/1.1/DTD/svg11.dtd">
<svg version="1.1" id="Layer_1" xmlns="http://www.w3.org/2000/svg" xmlns:xlink="http://www.w3.org/1999/xlink" x="0px" y="0px"
	 viewBox="0 0 125 125" enable-background="new 0 0 125 125" xml:space="preserve">
<g>
	<circle fill="#AF334E" cx="62.5" cy="62.5" r="62.5"/>
	<g>
		<path fill="#FFFFFF" d="M65.5,79.6c9.2,0,16.7-7.5,16.7-16.7s-7.5-16.7-16.7-16.7c-9.2,0-16.7,7.5-16.7,16.7S56.3,79.6,65.5,79.6
			L65.5,79.6z M65.5,79.6"/>
		<path fill="#FFFFFF" d="M65.5,84.1c11.7,0,21.2-9.5,21.2-21.2c0-11.7-9.5-21.2-21.2-21.2s-21.2,9.5-21.2,21.2
			C44.3,74.6,53.8,84.1,65.5,84.1L65.5,84.1z M65.5,44.9c9.9,0,18,8.1,18,18c0,9.9-8.1,18-18,18c-9.9,0-18-8.1-18-18
			C47.5,52.9,55.6,44.9,65.5,44.9L65.5,44.9z M65.5,44.9"/>
		<path fill="#FFFFFF" d="M98.5,86l-1.2-47.7c0-1-0.8-1.9-1.9-1.9c-0.3,0-0.5,0.1-0.8,0.2v0c0,0,0,0-0.1,0.1
			c-0.2,0.1-0.3,0.2-0.5,0.4c-1.4,1.1-5.7,5.7-6.1,11.8c-0.5,9.4,4,13.2,5.6,16.7L92.3,86c0,1,2.1,1.9,3.1,1.9
			C96.5,87.9,98.5,87.1,98.5,86L98.5,86z M98.5,86"/>
		<path fill="#FFFFFF" d="M29.7,57l3.2,1.6c0.4,0.2,0.8,0.3,1.2,0.4l-1.2,27.9c0,0.9,2.1,1.6,3.1,1.6c1,0,3.1-0.7,3.1-1.6l-1.2-28
			c0.4-0.1,0.9-0.3,1.2-0.5l2.4-1.4c1.7-1,3-3.3,3-5.4V39.1c0-1-0.8-1.9-1.9-1.9c-1,0-1.9,0.8-1.9,1.9v11.3h-1V39.1
			c0-1-0.8-1.9-1.9-1.9c-1,0-1.9,0.8-1.9,1.9v11.3h-1V39.1c0-1-0.8-1.9-1.9-1.9c-1,0-1.9,0.8-1.9,1.9v11.3h-1V39.5
			c0-1-0.8-1.9-1.9-1.9c-1,0-1.9,0.8-1.9,1.9v12.3C26.5,53.8,27.9,56.1,29.7,57L29.7,57z M29.7,57"/>
	</g>
</g>
</svg>
