<?xml version="1.0" encoding="utf-8"?>
<!-- Generator: Adobe Illustrator 18.0.0, SVG Export Plug-In . SVG Version: 6.00 Build 0)  -->
<!DOCTYPE svg PUBLIC "-//W3C//DTD SVG 1.1//EN" "http://www.w3.org/Graphics/SVG/1.1/DTD/svg11.dtd">
<svg version="1.1" id="Layer_1" xmlns="http://www.w3.org/2000/svg" xmlns:xlink="http://www.w3.org/1999/xlink" x="0px" y="0px"
	 width="116.451px" height="154.278px" viewBox="0 0 116.451 154.278" enable-background="new 0 0 116.451 154.278"
	 xml:space="preserve">
<g>
	<path fill="#333333" d="M69.597,23.469c0,7.696-6.227,13.944-13.944,13.944c-7.691,0-13.923-6.248-13.923-13.944
		c0-7.691,6.232-13.944,13.923-13.944C63.37,9.525,69.597,15.778,69.597,23.469L69.597,23.469z M69.597,23.469"/>
	<path fill="#333333" d="M43.032,66.661l0.266,5.19h0.735v5.539L38.15,88.302l-11.604-6.149l-4.559,8.608l-1.199,2.282l3.033,1.626
		l1.219-2.298l16.326,8.65l4.559-8.608h-0.021l8.103-15.023h3.522l4.127,16.789l-9.786,14.476h0.021l-0.021,0.042l10.072,6.816
		l2.381-3.522l-2.178-1.464l9.953-14.674l-0.057-0.042l-4.539-18.42v-5.539h0.875l1.751-22.818l21.307-12.923l-1.548-7.102
		l-22.531,10.5h-6.613l-5.336,6.17l-5.127-6.17l-10.036,1.897l0.021,0.099L18.609,27.706l-5.07,7.957l28.049,17.852L43.032,66.661z
		 M43.032,66.661"/>
	<g>
		<defs>
			<rect id="SVGID_1_" x="-3.802" y="0" width="125.059" height="135.48"/>
		</defs>
		<clipPath id="SVGID_2_">
			<use xlink:href="#SVGID_1_"  overflow="visible"/>
		</clipPath>
		<path clip-path="url(#SVGID_2_)" fill="#E5B428" d="M114.358,0.162c-4.215-1.115-7.165,3.747-7.899,5.091H87.324
			c-1.037-1.751-3.804-5.638-7.613-4.601c-3.601,0.959-2.908,5.805-2.178,10.911c0.308,2.22,0.651,4.497,0.651,6.555
			c0.021,1.85,0.672,3.356,1.933,4.476c2.163,1.933,5.602,2.241,7.556,2.241c0.813,0,1.381-0.063,1.464-0.083
			c2.501,4.763,5.148,7.107,5.148,7.107v1.402c0,0,0.855,0.104,1.141,0c-0.042,3.887-2.381,4.252-2.381,4.252v1.772h-1.631v0.735
			h-0.834l-0.651,1.996h-2.439v2.053h18.806v-2.053h-1.975l-0.651-1.996h-0.855v-0.735h-1.61v-1.772c0,0-2.34-0.365-2.381-4.252
			c0.287,0.104,1.12,0,1.12,0v-1.402c0,0,2.808-2.485,5.393-7.535c0.266,0.021,0.61,0.021,1.042,0.021
			c1.954,0,5.393-0.287,7.55-2.22c1.261-1.136,1.912-2.642,1.933-4.476c0.021-2.058,0.344-4.335,0.651-6.555
			C117.244,5.987,117.937,1.141,114.358,0.162L114.358,0.162z M81.405,21.171c-0.855-0.776-1.287-1.772-1.303-3.054
			c-0.021-2.199-0.349-4.539-0.693-6.821c-0.594-4.252-1.183-8.285,0.792-8.811c3.215-0.855,5.779,4.252,5.841,4.398V7.29h1.709
			c-0.485,2.459-1.24,2.663-2.746,3.705c0.532,4.841,1.813,8.791,3.236,11.927C86.756,22.959,83.296,22.88,81.405,21.171
			L81.405,21.171z M114.639,10.828c-0.323,2.261-0.667,4.622-0.688,6.821c0,1.282-0.427,2.277-1.303,3.053
			c-1.73,1.569-4.783,1.751-6.414,1.751c1.323-3.054,2.506-6.863,3.012-11.459c-1.506-1.063-2.256-1.245-2.746-3.726h1.709V6.044
			c0.672-1.178,2.95-4.763,5.659-4.028C115.822,2.527,115.254,6.576,114.639,10.828L114.639,10.828z M114.639,10.828"/>
	</g>
</g>
<rect x="0.198" y="152.278" fill="#CCCCCC" width="116.451" height="2"/>
<g>
</g>
<g>
</g>
<g>
</g>
<g>
</g>
<g>
</g>
<g>
</g>
<g>
</g>
<g>
</g>
<g>
</g>
<g>
</g>
<g>
</g>
<g>
</g>
<g>
</g>
<g>
</g>
<g>
</g>
</svg>
