<?xml version="1.0" encoding="utf-8"?>
<!-- Generator: Adobe Illustrator 18.0.0, SVG Export Plug-In . SVG Version: 6.00 Build 0)  -->
<!DOCTYPE svg PUBLIC "-//W3C//DTD SVG 1.1//EN" "http://www.w3.org/Graphics/SVG/1.1/DTD/svg11.dtd">
<svg version="1.1" id="Layer_1" xmlns="http://www.w3.org/2000/svg" xmlns:xlink="http://www.w3.org/1999/xlink" x="0px" y="0px"
	 width="116.451px" height="154.278px" viewBox="0 0 116.451 154.278" enable-background="new 0 0 116.451 154.278"
	 xml:space="preserve">
<g>
	<path fill="#333333" d="M58.771,28.946c0,9.791-7.941,17.706-17.727,17.706c-9.791,0-17.712-7.915-17.712-17.706
		c0-9.791,7.92-17.732,17.712-17.732C50.83,11.213,58.771,19.155,58.771,28.946L58.771,28.946z M58.771,28.946"/>
	<g>
		<defs>
			<rect id="SVGID_1_" x="13.656" y="0" width="98.796" height="140.691"/>
		</defs>
		<clipPath id="SVGID_2_">
			<use xlink:href="#SVGID_1_"  overflow="visible"/>
		</clipPath>
		<path clip-path="url(#SVGID_2_)" fill="#333333" d="M51.799,128.988V90.438h1.12l2.22-29.029l23.204-14.757l-1.975-9.036
			L51.637,49.32h-8.426l-6.758,7.837l-6.534-7.837l-14.288,2.689l-0.98,31.812h6.066l0.349,6.618h0.917v38.549h-1.224l-7.102,1.548
			v6.555H19.7l7.087-1.162l0.057,1.162h7.816V97.457h4.461v39.633h7.837l0.057-1.162l7.066,1.162h6.045v-6.555l-7.102-1.548H51.799z
			 M51.799,128.988"/>
		<path clip-path="url(#SVGID_2_)" fill="#E5B428" d="M104.761,0.224C99.41-1.219,95.642,4.966,94.73,6.675H70.427
			C69.104,4.46,65.56-0.49,60.714,0.813c-4.559,1.224-3.684,7.389-2.746,13.881c0.406,2.814,0.813,5.701,0.834,8.327
			c0.021,2.34,0.855,4.257,2.465,5.701c2.746,2.444,7.102,2.83,9.588,2.83c1.037,0,1.746-0.083,1.85-0.083
			c3.194,6.045,6.576,9.02,6.576,9.02v1.787c0,0,1.079,0.104,1.423,0c-0.042,4.95-3.012,5.398-3.012,5.398v2.256h-2.053v0.938
			h-1.079L73.72,53.39h-3.09v2.606h23.897V53.39h-2.506l-0.834-2.522h-1.079V49.93H88.05v-2.256c0,0-2.97-0.448-3.033-5.398
			c0.37,0.104,1.449,0,1.449,0v-1.787c0,0,3.559-3.158,6.837-9.567c0.328,0.021,0.776,0.042,1.324,0.042
			c2.485,0,6.842-0.391,9.588-2.85c1.61-1.449,2.423-3.34,2.465-5.68c0.016-2.626,0.427-5.518,0.834-8.327
			C108.445,7.592,109.321,1.443,104.761,0.224L104.761,0.224z M62.872,26.908c-1.099-0.974-1.626-2.256-1.647-3.908
			c-0.021-2.788-0.448-5.758-0.855-8.65C59.573,8.936,58.865,3.83,61.345,3.158c4.096-1.099,7.347,5.393,7.431,5.576v0.511h2.178
			c-0.63,3.132-1.568,3.397-3.501,4.721c0.693,6.149,2.303,11.151,4.111,15.142C69.672,29.17,65.295,29.066,62.872,26.908
			L62.872,26.908z M105.11,13.762c-0.406,2.887-0.834,5.862-0.855,8.65c-0.021,1.647-0.552,2.913-1.652,3.887
			c-2.215,1.996-6.086,2.241-8.16,2.22c1.688-3.866,3.173-8.712,3.825-14.554c-1.912-1.324-2.866-1.589-3.481-4.721h2.157V7.676
			c0.855-1.506,3.747-6.045,7.186-5.133C106.616,3.215,105.882,8.348,105.11,13.762L105.11,13.762z M105.11,13.762"/>
	</g>
	<rect x="0" y="152.278" fill="#CCCCCC" width="116.451" height="2"/>
</g>
<g>
</g>
<g>
</g>
<g>
</g>
<g>
</g>
<g>
</g>
<g>
</g>
<g>
</g>
<g>
</g>
<g>
</g>
<g>
</g>
<g>
</g>
<g>
</g>
<g>
</g>
<g>
</g>
<g>
</g>
</svg>
