<?xml version="1.0" encoding="utf-8"?>
<!-- Generator: Adobe Illustrator 18.1.0, SVG Export Plug-In . SVG Version: 6.00 Build 0)  -->
<svg version="1.1" id="Layer_1" xmlns="http://www.w3.org/2000/svg" xmlns:xlink="http://www.w3.org/1999/xlink" x="0px" y="0px"
	 viewBox="0 0 26.3 37.1" enable-background="new 0 0 26.3 37.1" xml:space="preserve">
<g id="Layer_8">
	<path fill="#CCCCCC" d="M24.8,3.5h1.5V0H0v3.5h1.5v0.9c0,5.7,2,10.9,5.2,14c-3.2,3.1-5.2,8.3-5.2,14v1.1H0v3.5h26.3v-3.5h-1.5v-1.1
		c0-5.7-2-10.9-5.2-14c3.2-3.1,5.2-8.3,5.2-14V3.5z M17.2,17.5L16,18.4l1.2,0.9c3,2.3,5,6.9,5.3,12H3.8c0.3-5.1,2.3-9.7,5.3-12
		l1.2-0.9l-1.2-0.9c-3-2.3-5-6.9-5.3-12h18.7C22.3,10.6,20.2,15.3,17.2,17.5z M6.2,7.4h13.9c-0.2,3.9-1.7,7.4-4,9.1
		c0,0-0.4,0.2-0.9,0.7c-1.1,1.5-1.1,7.2-1.1,7.4c0.8,0.1,1.6,0.4,2.4,1.2c2.9,2.7,3.8,3,3.9,4.9H6.6c0.1-1.9,1.8-3.3,3.9-4.9
		c0,0,1-0.9,2.4-1.1c0,0,0-0.1,0-0.1c0-5.3-1.7-7.6-1.7-7.6l-1.2-0.7C7.6,14.6,6.4,11.2,6.2,7.4z"/>
</g>
</svg>
