<?xml version="1.0" encoding="utf-8"?>
<!-- Generator: Adobe Illustrator 18.1.0, SVG Export Plug-In . SVG Version: 6.00 Build 0)  -->
<svg version="1.1" id="Layer_1" xmlns="http://www.w3.org/2000/svg" xmlns:xlink="http://www.w3.org/1999/xlink" x="0px" y="0px"
	 viewBox="0 0 22 22.2" enable-background="new 0 0 22 22.2" xml:space="preserve">
<g>
	<path fill="#EFCA4D" d="M11,12.8c3.1-0.1,5.1-2.9,5.1-7.2l-10.3,0C5.9,10,7.9,12.8,11,12.8z"/>
	<path fill="#EFCA4D" d="M18.1,15.7c-0.2-0.4-0.6-0.7-1-0.8l-2.8-1.2l-1.1-1l-2.2,2l-2.2-2.1l-1.3,1.1l-2.7,1.2
		c-0.4,0.2-0.7,0.4-1,0.8L0,22.2h9.9l1.1-5.3l1.1,5.3H22L18.1,15.7z M17.3,19.5h-1v1h-1.2v-1h-1v-1.2h1v-1h1.2v1h1V19.5z"/>
	<path fill="#EFCA4D" d="M16.2,3.1c0-1.7-1.4-3.1-3.1-3.1H8.9C7.2,0,5.8,1.4,5.8,3.1v1.4h10.4L16.2,3.1L16.2,3.1z"/>
</g>
</svg>
