<?xml version="1.0" encoding="utf-8"?>
<!-- Generator: Adobe Illustrator 18.1.0, SVG Export Plug-In . SVG Version: 6.00 Build 0)  -->
<svg version="1.1" id="Layer_1" xmlns="http://www.w3.org/2000/svg" xmlns:xlink="http://www.w3.org/1999/xlink" x="0px" y="0px"
	 viewBox="0 0 612 792" enable-background="new 0 0 612 792" xml:space="preserve">
<g>
	<path d="M306,443.3c86.2-2.8,141.9-80.7,141.9-200.3H161.3C164.1,365.4,219.8,443.3,306,443.3z"/>
	<path d="M503.5,524c-5.6-11.1-16.7-19.5-27.8-22.3l-77.9-33.4l-30.6-27.8L306,496.1l-61.2-58.4l-36.2,30.6l-75.1,33.4
		c-11.1,5.6-19.5,11.1-27.8,22.3L0,704.8h275.4L306,557.3l30.6,147.4H612L503.5,524z M481.3,629.7h-27.8v27.8h-33.4v-27.8h-27.8
		v-33.4h27.8v-27.8h33.4v27.8h27.8V629.7z"/>
	<path d="M450.7,173.5c0-47.3-38.9-86.2-86.2-86.2H247.6c-47.3,0-86.2,38.9-86.2,86.2v38.9h289.3V173.5L450.7,173.5z"/>
</g>
</svg>
