<?xml version="1.0" encoding="utf-8"?>
<!-- Generator: Adobe Illustrator 18.0.0, SVG Export Plug-In . SVG Version: 6.00 Build 0)  -->
<!DOCTYPE svg PUBLIC "-//W3C//DTD SVG 1.1//EN" "http://www.w3.org/Graphics/SVG/1.1/DTD/svg11.dtd">
<svg version="1.1" id="Layer_1" xmlns="http://www.w3.org/2000/svg" xmlns:xlink="http://www.w3.org/1999/xlink" x="0px" y="0px"
	 width="176.738px" height="170.884px" viewBox="0 0 176.738 170.884" enable-background="new 0 0 176.738 170.884"
	 xml:space="preserve">
<g>
	<path fill="#EFC94C" d="M163.824,62.087c-0.048-0.131-0.104-0.186-0.159-0.324c-0.11-0.269-0.241-0.538-0.324-0.835
		c-1.291-4.1-1.401-8.166-0.352-11.375l0.083-0.214c0.725-2.078,0.89-4.563,0.435-7.199v-0.028
		c-0.055-0.324-0.138-0.677-0.221-1.001l-0.027-0.131c-0.048-0.297-0.131-0.594-0.242-0.918l-0.055-0.214
		c-0.076-0.276-0.159-0.545-0.269-0.815l-0.104-0.324l-0.242-0.642l-0.221-0.49l-0.186-0.428c-0.111-0.242-0.214-0.462-0.352-0.704
		l-0.055-0.103c-0.511-1.029-1.132-2.05-1.857-3.023l-0.138-0.186l-0.055-0.11c-1.967-2.644-4.314-4.687-6.709-6.04
		c-2.43-1.373-4.908-2.022-7.199-1.995h-0.028c-0.055,0-0.083,0-0.138-0.028c-0.104,0.028-0.187,0.028-0.297,0.028h-0.021
		c-2.837,0.083-6.04-0.863-9.091-2.616v0.028c-0.511-0.297-1.021-0.649-1.512-0.994c-3.479-2.54-5.929-5.798-6.951-9.008
		l-0.055-0.241c-0.649-2.078-1.967-4.211-3.886-6.067c-0.269-0.242-0.511-0.483-0.78-0.704l-0.083-0.076
		c-0.242-0.221-0.483-0.407-0.725-0.594l-0.193-0.166l-0.669-0.483l-0.297-0.214l-0.593-0.38l-0.435-0.269l-0.428-0.214
		c-0.214-0.138-0.435-0.269-0.676-0.38l-0.103-0.055c-1.029-0.538-2.133-0.994-3.292-1.373l-0.214-0.083l-0.11-0.027
		c-3.154-0.994-6.254-1.263-9.008-0.939c-2.747,0.318-5.149,1.235-6.979,2.616l-0.027,0.021c-0.028,0.028-0.083,0.055-0.11,0.083
		c-0.083,0.055-0.159,0.11-0.242,0.166l-0.027,0.021c-2.264,1.725-5.391,2.864-8.87,3.237v0.028
		c-0.455,0.055-0.918,0.055-1.373,0.055c-0.463,0-0.946,0-1.374-0.055V6.274c-3.507-0.373-6.633-1.512-8.877-3.237l-0.028-0.021
		c-0.076-0.055-0.159-0.11-0.241-0.166c-0.028-0.028-0.076-0.055-0.104-0.083l-0.028-0.021c-1.836-1.381-4.231-2.298-6.985-2.616
		c-2.747-0.324-5.853-0.055-9.008,0.939l-0.103,0.027L61.398,1.18c-1.16,0.38-2.271,0.835-3.293,1.373l-0.11,0.055
		c-0.241,0.111-0.456,0.242-0.669,0.38L56.89,3.202l-0.456,0.269l-0.566,0.38l-0.297,0.214l-0.676,0.483l-0.186,0.166
		C54.44,4.9,54.219,5.086,53.95,5.307l-0.076,0.076c-0.269,0.221-0.518,0.463-0.759,0.704h-0.028
		c-1.884,1.884-3.203,3.99-3.851,6.067l-0.083,0.241c-1.021,3.237-3.479,6.468-6.93,9.036c-0.511,0.345-1.022,0.67-1.512,0.966
		L40.69,22.37c-3.023,1.753-6.233,2.671-9.091,2.616h-0.027c-0.083,0-0.187,0-0.269-0.028c-0.055,0.028-0.104,0.028-0.159,0.028
		c-2.292-0.028-4.777,0.621-7.199,1.967c-2.43,1.38-4.777,3.424-6.716,6.067l-0.083,0.11l-0.103,0.186
		c-0.732,0.973-1.353,1.995-1.891,3.023l-0.048,0.103c-0.11,0.242-0.221,0.463-0.325,0.704l-0.193,0.428l-0.214,0.49l-0.242,0.642
		l-0.138,0.324c-0.076,0.269-0.186,0.538-0.241,0.815l-0.083,0.214c-0.076,0.324-0.159,0.621-0.242,0.918l-0.028,0.131
		c-0.076,0.324-0.131,0.677-0.186,1.001v0.028h-0.027c-0.428,2.637-0.269,5.122,0.435,7.199l0.076,0.214
		c1.083,3.21,0.973,7.275-0.318,11.375c-0.111,0.297-0.221,0.566-0.324,0.835c-0.055,0.138-0.138,0.193-0.166,0.324
		C10.837,67.94,0,71.578,0,85.031c0,12.839,8.414,16.393,11.327,20.493c0.78,1.325,1.429,2.775,1.939,4.342
		c0.214,0.566,0.352,1.16,0.483,1.726l-0.028,0.028c0.732,3.423,0.594,6.744-0.345,9.436v0.028
		c-0.028,0.083-0.055,0.186-0.083,0.269c-0.028,0.028-0.028,0.083-0.055,0.138v0.028c-0.732,2.154-0.863,4.714-0.325,7.441
		c0.539,2.72,1.781,5.577,3.693,8.248l0.083,0.111l0.111,0.186c0.725,0.973,1.505,1.884,2.319,2.699l0.103,0.076
		c0.166,0.193,0.352,0.38,0.566,0.538l0.325,0.324l0.407,0.352l0.539,0.435l0.297,0.214l0.669,0.511l0.193,0.11
		c0.269,0.186,0.538,0.345,0.808,0.511l0.11,0.083c0.297,0.159,0.594,0.317,0.883,0.511h0.028c2.374,1.242,4.776,1.829,6.985,1.808
		h0.214c3.403-0.028,7.227,1.291,10.733,3.796c3.479,2.616,5.957,5.908,6.93,9.167l0.027,0.028c0.028,0.083,0.055,0.193,0.055,0.269
		c0.028,0.055,0.048,0.11,0.076,0.138v0.028c0.677,2.181,2.078,4.314,4.128,6.198c2.05,1.864,4.749,3.451,7.876,4.507
		c1.16,0.345,2.319,0.614,3.451,0.808l0.131,0.028c0.242,0.028,0.511,0.076,0.759,0.103l0.483,0.055l0.538,0.028l0.676,0.055h1.429
		c0.324-0.028,0.642-0.028,0.939-0.055h0.138c0.352-0.055,0.704-0.083,1.022-0.131h0.027c2.644-0.407,4.935-1.325,6.688-2.644
		l0.186-0.138c2.699-1.995,6.557-3.154,10.816-3.21c4.259,0.055,8.117,1.215,10.809,3.21l0.193,0.138
		c1.746,1.318,4.038,2.236,6.709,2.644c0.352,0.048,0.704,0.103,1.056,0.131h0.103c0.325,0.027,0.621,0.027,0.946,0.055h1.429
		l0.697-0.055l0.545-0.028l0.456-0.055c0.269-0.027,0.511-0.076,0.78-0.103l0.111-0.028c1.132-0.193,2.319-0.462,3.479-0.808
		c3.127-1.056,5.798-2.644,7.848-4.507c2.043-1.884,3.451-4.017,4.148-6.198v-0.028c0-0.055,0.028-0.083,0.055-0.138
		c0-0.076,0.028-0.186,0.083-0.269v-0.028c0.994-3.258,3.451-6.55,6.951-9.167c3.507-2.505,7.337-3.824,10.706-3.796h0.241
		c2.188,0.021,4.583-0.566,6.958-1.808h0.027c0.297-0.193,0.594-0.352,0.918-0.511l0.083-0.083c0.269-0.166,0.538-0.325,0.807-0.511
		l0.187-0.11l0.676-0.511l0.297-0.214l0.538-0.435l0.407-0.352l0.345-0.324c0.193-0.159,0.38-0.345,0.566-0.538l0.083-0.076
		c0.835-0.815,1.615-1.726,2.319-2.699l0.138-0.186l0.076-0.111c1.919-2.671,3.154-5.529,3.693-8.248
		c0.538-2.699,0.407-5.287-0.317-7.441v-0.028c-0.028-0.055-0.028-0.11-0.055-0.138c-0.028-0.083-0.083-0.187-0.083-0.269
		l-0.028-0.028c-0.946-2.692-1.049-6.012-0.324-9.436l-0.028-0.028c0.11-0.566,0.269-1.16,0.463-1.726
		c0.538-1.567,1.187-3.016,1.967-4.342c2.913-4.1,11.32-7.655,11.32-20.493C176.717,71.578,165.874,67.94,163.824,62.087
		L163.824,62.087z M151.447,104.178L151.447,104.178c-0.697,2.395-1.532,4.742-2.533,7.062c-3.313,7.848-8.09,14.909-14.157,20.976
		c-6.06,6.067-13.101,10.844-20.977,14.157c-8.062,3.396-16.607,5.149-25.422,5.177c-8.821-0.027-17.394-1.781-25.457-5.177
		c-7.841-3.313-14.909-8.09-20.976-14.157c-3.61-3.61-6.709-7.627-9.353-11.914h18.602c0.594,0.028,1.132,0.055,1.67,0.055
		c1.298,0,2.588-0.083,3.858-0.166c1.077-0.055,2.154-0.104,3.127-0.104h0.428c0.918,0.186,1.864,0.29,2.809,0.373
		c0.863,0.11,1.753,0.193,2.692,0.38c1.056,0.186,2.133,1.215,3.182,2.209c0.593,0.566,1.187,1.104,1.781,1.539
		c0.594,0.428,1.187,0.835,1.781,1.291c1.808,1.298,3.693,2.671,5.853,3.644c2.637,1.132,5.55,1.505,8.352,1.857
		c1.381,0.193,2.754,0.352,4.045,0.621c0.842,0.11,1.567,0.166,2.319,0.269c2.216,0.242,4.507,0.511,6.799,0.511
		c1.532,0,2.913-0.131,4.148-0.373c4.535-1.27,7.393-4.935,7.393-9.146c2.292-0.911,4.342-2.83,5.632-5.28
		c1.159-2.188,1.567-4.528,1.132-6.606c4.369-2.857,6.605-8.2,5.391-12.783c1.946-1.318,3.265-3.527,3.721-6.226
		c0.649-3.748-0.511-7.71-2.934-10.112c-3.21-3.044-7.634-3.803-11.541-4.445c-0.621-0.11-1.215-0.221-1.836-0.324
		c-0.428-0.11-0.994-0.249-1.56-0.352c-5.204-1.215-8.904-2.402-8.904-6.688c0-2.802,0.918-5.391,1.891-8.166
		c1.132-3.161,2.291-6.419,2.105-10.222c-0.352-6.792-3.237-12.701-7.717-15.827c-1.774-1.401-4.121-2.264-6.357-2.264
		c-3.32,0-5.826,1.808-6.827,4.963c-0.697,2.126-0.593,4.203-0.483,6.385c0.055,0.545,0.083,1.084,0.11,1.65
		c0.104,3.016-0.249,5.501-1.132,7.869c-1.65,4.694-4.99,9.063-7.745,12.349l-1.477,1.891c-2.078,2.644-4.266,5.363-6.688,7.551
		c-1.215,0.939-2.506,1.263-4.155,1.643c-0.455,0.027-5.149,0.131-6.93,0.131c-0.939,0-2.023,0.055-3.127,0.166l-29.011,0.269
		c0.732-6.93,2.291-11.921,2.291-11.921c0.732-2.395,1.567-4.742,2.533-7.061c3.348-7.876,8.09-14.937,14.157-21.004
		c6.067-6.039,13.129-10.809,20.977-14.129c8.062-3.424,16.607-5.149,25.429-5.177c8.814,0.028,17.387,1.753,25.449,5.177
		c7.848,3.32,14.909,8.09,20.977,14.129c6.067,6.067,10.816,13.129,14.157,21.004c0.973,2.319,1.809,4.666,2.506,7.061
		c0,0,2.671,8.414,2.671,18.637C154.091,93.611,152.234,101.293,151.447,104.178L151.447,104.178z M151.447,104.178"/>
</g>
<g>
</g>
<g>
</g>
<g>
</g>
<g>
</g>
<g>
</g>
<g>
</g>
<g>
</g>
<g>
</g>
<g>
</g>
<g>
</g>
<g>
</g>
<g>
</g>
<g>
</g>
<g>
</g>
<g>
</g>
</svg>
