<?xml version="1.0" encoding="utf-8"?>
<!-- Generator: Adobe Illustrator 18.0.0, SVG Export Plug-In . SVG Version: 6.00 Build 0)  -->
<!DOCTYPE svg PUBLIC "-//W3C//DTD SVG 1.1//EN" "http://www.w3.org/Graphics/SVG/1.1/DTD/svg11.dtd">
<svg version="1.1" id="Layer_1" xmlns="http://www.w3.org/2000/svg" xmlns:xlink="http://www.w3.org/1999/xlink" x="0px" y="0px"
	 viewBox="0 0 144.9 144.9" enable-background="new 0 0 144.9 144.9" xml:space="preserve">
<g>
	<circle class="fill" fill="#CCCCCC" cx="72.4" cy="72.4" r="72.4"/>
	<g>
		<path fill="#FFFFFF" d="M69.2,70.5L69.1,67v-6c0.9-0.2,2-0.3,3.3-0.3c1.3,0,2.4,0.1,3.3,0.3v6l-0.1,3.5l3.4-0.1h5.6
			c0.2,1.2,0.3,2.3,0.3,3.2s-0.1,1.9-0.3,3h-5.6l-3.4-0.1l0.1,3.4v6c-0.9,0.2-2,0.3-3.3,0.3c-1.3,0-2.4-0.1-3.3-0.3v-6l0.1-3.4
			l-3.4,0.1h-5.6c-0.2-0.8-0.3-1.8-0.3-3.1s0.1-2.3,0.3-3.1h5.6L69.2,70.5z"/>
	</g>
</g>
</svg>
