<?xml version="1.0" encoding="utf-8"?>
<!-- Generator: Adobe Illustrator 18.0.0, SVG Export Plug-In . SVG Version: 6.00 Build 0)  -->
<!DOCTYPE svg PUBLIC "-//W3C//DTD SVG 1.1//EN" "http://www.w3.org/Graphics/SVG/1.1/DTD/svg11.dtd">
<svg version="1.1" id="Layer_1" xmlns="http://www.w3.org/2000/svg" xmlns:xlink="http://www.w3.org/1999/xlink" x="0px" y="0px"
	 viewBox="0 0 32.7 38.3" enable-background="new 0 0 32.7 38.3" xml:space="preserve">
<g class="fill">
	<path fill="#CCCCCC" d="M19,0c0,3,0,5.4,0,7.9c0,5.7,0,5.7,5.6,5.7c2.5,0,5,0,7.7,0c0.2,0.8,0.4,1.4,0.4,2c0,6.4,0,12.8,0,19.1
		c0,2.2-0.6,3.4-3.1,3.4c-8.9-0.1-17.8-0.1-26.6,0c-2.3,0-3-1.1-3-3.2C0,24.4,0,13.7,0,3c0-1.9,0.7-3,2.8-3C8,0,13.3,0,19,0z"/>
	<path fill="#CCCCCC" d="M22,10.6c0-3.1,0-5.9,0-8.6c2.8,3,5.6,6,8,8.6C28.2,10.6,25.3,10.6,22,10.6z"/>
</g>
<g>
	<g>
		<path fill="#FFFFFF" d="M15.1,22.5l0-1.4v-2.4c0.4-0.1,0.8-0.1,1.3-0.1s0.9,0,1.3,0.1v2.4l0,1.4l1.4,0h2.2
			c0.1,0.5,0.1,0.9,0.1,1.3c0,0.4,0,0.8-0.1,1.2H19l-1.4,0l0,1.3v2.4c-0.4,0.1-0.8,0.1-1.3,0.1s-0.9,0-1.3-0.1v-2.4l0-1.3l-1.4,0
			h-2.2c-0.1-0.3-0.1-0.7-0.1-1.2c0-0.5,0-0.9,0.1-1.2h2.2L15.1,22.5z"/>
	</g>
</g>
</svg>
