<?xml version="1.0" encoding="utf-8"?>
<!-- Generator: Adobe Illustrator 18.1.0, SVG Export Plug-In . SVG Version: 6.00 Build 0)  -->
<svg version="1.1" id="Layer_1" xmlns="http://www.w3.org/2000/svg" xmlns:xlink="http://www.w3.org/1999/xlink" x="0px" y="0px"
	 viewBox="0 0 612 792" enable-background="new 0 0 612 792" xml:space="preserve">
<g>
	<path d="M303.1,48.1C205,48.1,115.5,91.4,43.3,155c-37.5,31.8-52,83.7-31.8,129.9l46.2,106.8C101,296.4,196.3,232.9,306,232.9
		c112.6,0,210.7,69.3,251.2,167.4l49.1-115.5c20.2-46.2,5.8-98.2-31.8-129.9C496.5,91.4,404.2,48.1,303.1,48.1z M358,172.3h-31.8
		V204h-43.3v-31.8h-34.6v-46.2H280V94.3h43.3v31.8h31.8v46.2H358z"/>
	<path d="M424.4,296.4L424.4,296.4c0,0-77.9,124.1-213.6,167.4c-5.8,2.9-11.5,0-14.4-5.8c-2.9-5.8-2.9-11.5,0-14.4
		c5.8-5.8,11.5-14.4,17.3-23.1c2.9-5.8,2.9-14.4,0-20.2c-2.9-2.9-11.5-5.8-17.3-5.8c-40.4,11.5-106.8,43.3-129.9,129.9
		C77.9,645.7,179,743.9,303.1,743.9c132.8,0,239.6-106.8,239.6-239.6C542.7,414.8,493.6,339.7,424.4,296.4z"/>
</g>
</svg>
