<?xml version="1.0" encoding="utf-8"?>
<!-- Generator: Adobe Illustrator 18.1.0, SVG Export Plug-In . SVG Version: 6.00 Build 0)  -->
<svg version="1.1" id="Layer_1" xmlns="http://www.w3.org/2000/svg" xmlns:xlink="http://www.w3.org/1999/xlink" x="0px" y="0px"
	 viewBox="0 0 24 20" enable-background="new 0 0 24 20" xml:space="preserve">
<path fill="#CCCCCC" d="M4,8v12h20V8H4z M22.4,15.9l-0.7,0.6c-0.1,0-0.2,0-0.2,0c-0.7,0-1.3,0.5-1.3,1.2c0,0.1,0,0.2,0,0.2l-0.7,0.6
	H8.4l-0.7-0.6c0-0.1,0.1-0.1,0.1-0.2c0-0.7-0.6-1.2-1.3-1.2c-0.1,0-0.2,0-0.2,0l-0.7-0.6V12l0.7-0.6c0.1,0,0.2,0,0.2,0
	c0.7,0,1.3-0.5,1.3-1.2c0-0.1,0-0.2-0.1-0.2l0.7-0.6h11.2l0.7,0.6c0,0.1-0.1,0.1-0.1,0.2c0,0.7,0.6,1.2,1.3,1.2c0.1,0,0.2,0,0.2,0
	l0.7,0.6L22.4,15.9L22.4,15.9z M20.8,14c0,0.7-0.6,1.2-1.3,1.2c-0.7,0-1.3-0.5-1.3-1.2c0-0.7,0.6-1.2,1.3-1.2
	C20.2,12.8,20.8,13.3,20.8,14z M17.1,14c0,1.5-1.3,2.8-3,2.8s-3-1.2-3-2.8c0-1.5,1.3-2.8,3-2.8S17.1,12.4,17.1,14z M9.8,14
	c0,0.7-0.6,1.2-1.3,1.2S7.2,14.6,7.2,14c0-0.7,0.6-1.2,1.3-1.2S9.8,13.3,9.8,14z M17.9,6.7c0,0.1,0,0.1,0,0.2h-2.5
	c0.1-0.4,0.4-0.8,0.8-0.9C16.9,5.8,17.7,6.1,17.9,6.7z M4.4,7H3v2.8L2.9,9.9L3,10.2v4.8L0,6.6L18.9,0l2.4,7h-1.7l-0.9-2.6L17.9,4
	c-0.1,0-0.1,0.1-0.2,0.1c-0.7,0.2-1.4-0.1-1.6-0.7c0-0.1,0-0.2,0-0.2l-0.8-0.4L4.7,6.6L4.4,7z M10.6,6.3c1.1-0.4,2.3-0.1,3.1,0.6
	H9.5C9.8,6.7,10.2,6.5,10.6,6.3z"/>
</svg>
