<?xml version="1.0" encoding="utf-8"?>
<!-- Generator: Adobe Illustrator 18.1.0, SVG Export Plug-In . SVG Version: 6.00 Build 0)  -->
<!DOCTYPE svg PUBLIC "-//W3C//DTD SVG 1.1//EN" "http://www.w3.org/Graphics/SVG/1.1/DTD/svg11.dtd">
<svg version="1.1" id="Layer_1" xmlns="http://www.w3.org/2000/svg" xmlns:xlink="http://www.w3.org/1999/xlink" x="0px" y="0px"
	 viewBox="0 0 24.4 16.3" enable-background="new 0 0 24.4 16.3" xml:space="preserve">
<g>
	<path fill="#B2B3B3" d="M1.5,2.4l3.1,0c0.5,0,1,0.1,1.4,0.2C6.4,2.7,6.8,2.9,7,3.2c0.3,0.3,0.5,0.6,0.7,1C7.9,4.6,8,5.1,8,5.6
		s-0.1,1-0.2,1.4S7.3,7.9,7,8.1C6.7,8.4,6.4,8.6,5.9,8.8C5.5,8.9,5.1,9,4.5,9H3v3.6c-0.1,0-0.2,0-0.4,0c-0.1,0-0.3,0-0.4,0
		c-0.1,0-0.3,0-0.4,0c-0.1,0-0.3,0-0.4,0V2.5L1.5,2.4z M3,7.7l1.5,0c0.3,0,0.6-0.1,0.9-0.2c0.2-0.1,0.4-0.3,0.6-0.5
		C6,6.9,6.2,6.7,6.2,6.4c0.1-0.2,0.1-0.5,0.1-0.8c0-0.3,0-0.5-0.1-0.8S6,4.4,5.9,4.2C5.8,4,5.6,3.9,5.3,3.8C5.1,3.6,4.8,3.6,4.5,3.6
		c-0.4,0-0.7,0-0.9,0c-0.3,0-0.5,0-0.6,0V7.7z"/>
	<path fill="#B2B3B3" d="M15.6,7.6V11c0,0.6,0.1,1.1,0.2,1.4c-0.3,0.2-0.6,0.3-0.9,0.3s-0.6-0.1-0.7-0.2c-0.1-0.2-0.2-0.4-0.2-0.7
		V7.9c0-0.5-0.1-0.9-0.2-1.1c-0.1-0.2-0.4-0.3-0.7-0.3s-0.7,0.1-1,0.3c-0.3,0.2-0.6,0.4-0.9,0.7v5.2c-0.1,0-0.2,0-0.3,0
		s-0.3,0-0.4,0c-0.1,0-0.3,0-0.4,0c-0.1,0-0.3,0-0.4,0V1.7l0.1-0.1h0.6c0.3,0,0.5,0.1,0.6,0.2c0.1,0.1,0.2,0.4,0.2,0.8v3.5
		c0.7-0.7,1.5-1,2.4-1c0.7,0,1.2,0.2,1.5,0.7C15.4,6.2,15.6,6.8,15.6,7.6z"/>
	<path fill="#B2B3B3" d="M21.1,12.8c-0.6,0-1.1-0.2-1.7-0.5v2.6c0,0.4-0.1,0.6-0.2,0.8c-0.1,0.2-0.3,0.2-0.7,0.2h-0.6l-0.1-0.1V5.2
		l0.1-0.1h0.5c0.5,0,0.8,0.3,0.9,0.8C19.9,5.3,20.6,5,21.4,5c0.4,0,0.8,0.1,1.1,0.3c0.3,0.2,0.6,0.4,0.8,0.8
		c0.2,0.3,0.4,0.7,0.5,1.2c0.1,0.5,0.2,1,0.2,1.6c0,0.6-0.1,1.1-0.2,1.6s-0.4,0.9-0.6,1.2c-0.3,0.3-0.6,0.6-0.9,0.8
		S21.5,12.8,21.1,12.8z M21,6.3c-0.7,0-1.2,0.3-1.6,1V11c0.3,0.2,0.5,0.3,0.8,0.4s0.5,0.1,0.7,0.1c0.5,0,0.8-0.2,1.1-0.7
		c0.3-0.5,0.4-1.1,0.4-2c0-0.9-0.1-1.5-0.4-1.9C21.7,6.5,21.4,6.3,21,6.3z"/>
</g>
<g>
</g>
<g>
</g>
<g>
</g>
<g>
</g>
<g>
</g>
<g>
</g>
</svg>
