<?xml version="1.0" encoding="utf-8"?>
<!-- Generator: Adobe Illustrator 18.1.0, SVG Export Plug-In . SVG Version: 6.00 Build 0)  -->
<svg version="1.1" id="Layer_1" xmlns="http://www.w3.org/2000/svg" xmlns:xlink="http://www.w3.org/1999/xlink" x="0px" y="0px"
	 viewBox="0 0 21.9 25.7" enable-background="new 0 0 21.9 25.7" xml:space="preserve">
<g>
	<path fill="#EFCA4D" d="M19.1,13.3v-0.2c0-0.2-0.1-0.4-0.2-0.6c0-0.3-0.1-0.5-0.1-0.8c0-0.1,0-0.1-0.1-0.1c0.2-0.2,0.3-0.3,0.3-0.4
		c0,0-2.5-1.2-8-1.2s-8,1.2-8,1.2c0,0.1,0.1,0.3,0.3,0.4c0,0,0,0.1,0,0.1c-0.1,0.3-0.1,0.6-0.2,0.8c-0.1,0.2-0.2,0.4-0.2,0.6v0.2
		c-1.1,0.5-1.8,1.7-1.8,3.3c0,1.7,1.6,3.1,2.9,3.6c1.2,3.9,5.4,5.6,7,5.6c1.6,0,5.8-1.7,7-5.5c1.4-0.4,2.9-2,2.9-3.6
		C20.9,15.1,20.1,13.8,19.1,13.3z M17.3,18.5c-0.4,0-0.8,0.3-0.9,0.7c-0.7,3.3-4.4,4.7-5.4,4.7s-4.7-1.4-5.4-4.7
		c-0.1-0.4-0.5-0.7-0.9-0.7c-0.4,0-1.8-1-1.8-1.9c0-0.4,0.1-0.8,0.2-1.1c0.2,0.2,0.4,0.3,0.7,0.3c0.5,0,0.9-0.4,0.9-0.9v-0.8
		c0,0,0-0.1,0-0.1c0-0.4,0.1-0.8,0.1-1.2c1.5,0.9,3.7,1.9,6.2,1.9c2.4,0,4.7-0.9,6.2-1.9c0.1,0.4,0.1,0.8,0.1,1.2c0,0,0,0.1,0,0.1
		v0.8c0,0.5,0.4,0.9,0.9,0.9c0.3,0,0.5-0.1,0.6-0.3c0.1,0.3,0.2,0.6,0.2,1C19.1,17.5,17.8,18.5,17.3,18.5z"/>
	<circle fill="#EFCA4D" cx="14.5" cy="16.3" r="1.5"/>
	<circle fill="#EFCA4D" cx="7.5" cy="16.3" r="1.5"/>
	<path fill="#EFCA4D" d="M11,8.7c5.6,0,7.9,1,7.9,1c0-1.8,3.9-4.8,2.7-4.8C14.8,4.9,13.4,0,11,0C8.5,0,8,4.9,0.3,4.9
		c-1.2,0,1.7,3,1.7,4.8C2,9.7,5.4,8.7,11,8.7z M9,3.8h4c0,0,0,1,0,2s-2,2-2,2s-2-1-2-2S9,3.8,9,3.8z"/>
</g>
</svg>
