<?xml version="1.0" encoding="utf-8"?>
<!-- Generator: Adobe Illustrator 18.1.0, SVG Export Plug-In . SVG Version: 6.00 Build 0)  -->
<svg version="1.1" id="Layer_1" xmlns="http://www.w3.org/2000/svg" xmlns:xlink="http://www.w3.org/1999/xlink" x="0px" y="0px"
	 viewBox="0 0 612 792" enable-background="new 0 0 612 792" xml:space="preserve">
<g>
	<path d="M533.8,408.6V403c0-5.6-2.8-11.2-5.6-16.8c0-8.4-2.8-14-2.8-22.4c0-2.8,0-2.8-2.8-2.8c5.6-5.6,8.4-8.4,8.4-11.2
		c0,0-69.9-33.5-223.6-33.5S83.8,349.9,83.8,349.9c0,2.8,2.8,8.4,8.4,11.2v2.8c-2.8,8.4-2.8,16.8-5.6,22.4
		c-2.8,5.6-5.6,11.2-5.6,16.8v5.6c-30.7,14-50.3,47.5-50.3,92.2c0,47.5,44.7,86.6,81,100.6c33.5,109,150.9,156.5,195.6,156.5
		S469.5,710.4,503,604.2c39.1-11.2,81-55.9,81-100.6C584.1,458.9,561.7,422.5,533.8,408.6z M483.5,553.9c-11.2,0-22.4,8.4-25.2,19.6
		c-19.6,92.2-123,131.3-150.9,131.3c-27.9,0-131.3-39.1-150.9-131.3c-2.8-11.2-14-19.6-25.2-19.6S81,525.9,81,500.8
		c0-11.2,2.8-22.4,5.6-30.7c5.6,5.6,11.2,8.4,19.6,8.4c14,0,25.2-11.2,25.2-25.2v-22.4v-2.8c0-11.2,2.8-22.4,2.8-33.5
		c41.9,25.2,103.4,53.1,173.3,53.1c67.1,0,131.3-25.2,173.3-53.1c2.8,11.2,2.8,22.4,2.8,33.5v2.8v22.4c0,14,11.2,25.2,25.2,25.2
		c8.4,0,14-2.8,16.8-8.4c2.8,8.4,5.6,16.8,5.6,27.9C533.8,525.9,497.4,553.9,483.5,553.9z"/>
	<circle cx="405.2" cy="492.4" r="41.9"/>
	<circle cx="209.6" cy="492.4" r="41.9"/>
	<path d="M307.4,280c156.5,0,220.8,27.9,220.8,27.9c0-50.3,109-134.1,75.5-134.1c-190,0-229.2-136.9-296.2-136.9
		c-69.9,0-83.8,136.9-299,136.9c-33.5,0,47.5,83.8,47.5,134.1C55.9,308,150.9,280,307.4,280z M251.5,143.1h111.8c0,0,0,27.9,0,55.9
		s-55.9,55.9-55.9,55.9s-55.9-27.9-55.9-55.9S251.5,143.1,251.5,143.1z"/>
</g>
</svg>
