<?xml version="1.0" encoding="utf-8"?>
<!-- Generator: Adobe Illustrator 18.1.0, SVG Export Plug-In . SVG Version: 6.00 Build 0)  -->
<svg version="1.1" id="Layer_1" xmlns="http://www.w3.org/2000/svg" xmlns:xlink="http://www.w3.org/1999/xlink" x="0px" y="0px"
	 viewBox="0 0 21 25.1" enable-background="new 0 0 21 25.1" xml:space="preserve">
<g>
	<polygon fill="#EFCA4D" points="11.9,22.5 8.8,22.5 9.6,25.1 11.2,25.1 	"/>
	<path fill="#EFCA4D" d="M9.9,21.5c-0.4-0.1-0.8-0.2-1.2-0.3L9.1,22h2.5l0.3-0.8C11.3,21.4,10.6,21.5,9.9,21.5z"/>
	<path fill="#EFCA4D" d="M1.2,9.6c0,0.1,0,0.2,0,0.2c-0.2,2.6,2.2,5.3,3,6.4c0.9,1.2,2.7,3.8,5.7,4.2c3,0.3,4.9-2.3,5.3-3.2
		c0.3-0.8,3.4-5.8,2.9-7.7c0,0,0,0,0,0c0,0,0,0,0.1,0c0.6,0,1-0.8,1-1.7c0-1-0.5-1.7-1-1.7c-0.1,0-0.1,0-0.2,0C17,2.6,13.7,0,9.7,0
		c-4,0-7.4,2.6-8.3,6.2c0,0,0,0,0,0c-0.6,0-1,0.8-1,1.7C0.2,8.8,0.7,9.5,1.2,9.6z M12.5,14.8c-1.1,0.2-2.8,0.2-4.3,0
		c-0.8-0.1-1.5-0.4-2.3-0.8c1.3-0.1,3.1-0.3,4.2-0.3c1,0,2.5,0.1,3.8,0.2C13.4,14.4,12.9,14.7,12.5,14.8z M9.7,1.2
		c3.8,0,6.9,2.7,7.3,6.1H16l0.1-1.4h-5.6l0,0.4L9.9,6L9.1,6.3l0-0.4H3.5l0.1,1.6H2.3C2.7,4,5.8,1.2,9.7,1.2z M15.6,6.4l-0.3,3h-3.9
		l-0.3-3H15.6z M8.5,6.4l-0.3,3H4.4l-0.3-3H8.5z M3.8,8.7L3.8,8.7l0.1,1.3h4.8L9,7.3l0.9-0.3l0.8,0.2l0.2,2.6h4.8l0.1-1.4H17
		c0,0.3,0,0.6-0.1,0.8c-0.2,0.4-0.4,0.9-0.7,1.4c-2.7,1.6-8.8,2.3-13.3-0.3c-0.2-0.5-0.4-1-0.6-1.6c0-0.1,0-0.2,0-0.2H3.8z"/>
	<rect x="9.2" y="10.2" fill="#EFCA4D" width="1.3" height="0.6"/>
	<path fill="#EFCA4D" d="M6.9,20.1c-0.3-0.2-0.5-0.4-0.8-0.7L0,20.8l0.2,4.4h8.3L6.9,20.1z"/>
	<path fill="#EFCA4D" d="M21,20.8l-6.5-1.4c-0.1,0.1-0.2,0.3-0.3,0.4l-2,5.4h8.7L21,20.8z"/>
</g>
</svg>
