<?xml version="1.0" encoding="utf-8"?>
<!-- Generator: Adobe Illustrator 18.1.0, SVG Export Plug-In . SVG Version: 6.00 Build 0)  -->
<svg version="1.1" id="Layer_1" xmlns="http://www.w3.org/2000/svg" xmlns:xlink="http://www.w3.org/1999/xlink" x="0px" y="0px"
	 viewBox="0 0 612 792" enable-background="new 0 0 612 792" xml:space="preserve">
<g>
	<polygon points="346.8,686 256.5,686 279.8,761.7 326.4,761.7 	"/>
	<path d="M288.5,656.8c-11.7-2.9-23.3-5.8-35-8.7l11.7,23.3h72.9l8.7-23.3C329.3,653.9,308.9,656.8,288.5,656.8z"/>
	<path d="M35,310c0,2.9,0,5.8,0,5.8c-5.8,75.8,64.1,154.5,87.4,186.5c26.2,35,78.7,110.7,166.1,122.4c87.4,8.7,142.8-67,154.5-93.3
		c8.7-23.3,99.1-169,84.5-224.4l0,0c0,0,0,0,2.9,0c17.5,0,29.1-23.3,29.1-49.5c0-29.1-14.6-49.5-29.1-49.5c-2.9,0-2.9,0-5.8,0
		C495.4,106,399.3,30.3,282.7,30.3S67,106,40.8,210.9l0,0c-17.5,0-29.1,23.3-29.1,49.5C5.8,286.7,20.4,307.1,35,310z M364.3,461.6
		c-32.1,5.8-81.6,5.8-125.3,0c-23.3-2.9-43.7-11.7-67-23.3c37.9-2.9,90.3-8.7,122.4-8.7c29.1,0,72.9,2.9,110.7,5.8
		C390.5,449.9,375.9,458.7,364.3,461.6z M282.7,65.2c110.7,0,201.1,78.7,212.7,177.8h-29.1l2.9-40.8H306v11.7l-17.5-8.7l-23.3,8.7
		v-11.7H102l2.9,46.6H67C78.7,146.8,169,65.2,282.7,65.2z M454.6,216.8l-8.7,87.4H332.2l-8.7-87.4L454.6,216.8L454.6,216.8z
		 M247.7,216.8l-8.7,87.4H128.2l-8.7-87.4L247.7,216.8L247.7,216.8z M110.7,283.8L110.7,283.8l2.9,37.9h139.9l8.7-78.7l26.2-8.7
		l23.3,5.8l5.8,75.8h139.9l2.9-40.8h35c0,8.7,0,17.5-2.9,23.3c-5.8,11.7-11.7,26.2-20.4,40.8c-78.7,46.6-256.5,67-387.6-8.7
		c-5.8-14.6-11.7-29.1-17.5-46.6c0-2.9,0-5.8,0-5.8h43.7V283.8z"/>
	<rect x="268.1" y="327.5" width="37.9" height="17.5"/>
	<path d="M201.1,616c-8.7-5.8-14.6-11.7-23.3-20.4L0,636.4l5.8,128.2h241.9L201.1,616z"/>
	<path d="M612,636.4l-189.4-40.8c-2.9,2.9-5.8,8.7-8.7,11.7l-58.3,157.4h253.5L612,636.4z"/>
</g>
</svg>
