<?xml version="1.0" encoding="utf-8"?>
<!-- Generator: Adobe Illustrator 18.1.0, SVG Export Plug-In . SVG Version: 6.00 Build 0)  -->
<svg version="1.1" id="Layer_1" xmlns="http://www.w3.org/2000/svg" xmlns:xlink="http://www.w3.org/1999/xlink" x="0px" y="0px"
	 viewBox="0 0 22.2 17.9" enable-background="new 0 0 22.2 17.9" xml:space="preserve">
<g>
	<path fill="#B3B3B3" d="M3.8,13.6c2.5,0,4.7,0.4,6.3,1.1c0,0,0.1,0,0.1,0c0,0,0.1,0,0.1,0c0.1,0,0.1-0.1,0.1-0.2l0-11.8
		c0-0.1-0.1-0.2-0.1-0.2L3.9,0C3.9,0,3.8,0,3.7,0c-0.1,0-0.1,0.1-0.1,0.2v13.2C3.6,13.5,3.7,13.6,3.8,13.6z"/>
	<path fill="#B3B3B3" d="M22.2,2.1c-0.1,0-0.1-0.1-0.2,0l-2.3,0.7c-0.1,0-0.2,0.1-0.2,0.2v11.4c0,0,0,0.2-0.2,0.2
		c-0.2,0-0.4,0-0.4,0c-1.8,0-5.2,0.2-7.4,1.4l-0.4,0.2l-0.4-0.2c-2.2-1.2-5.6-1.4-7.4-1.4c0,0-0.4,0-0.5,0c-0.1,0-0.1-0.1-0.1-0.1
		V2.9c0-0.1-0.1-0.2-0.2-0.2L0.3,2.1c-0.1,0-0.1,0-0.2,0C0,2.1,0,2.2,0,2.3V16c0,0.1,0,0.1,0.1,0.2c0,0,0.1,0.1,0.2,0.1
		c0.7-0.1,1.7-0.1,2.9-0.1c2.6,0,4.7,0.4,6.1,1.1c0.2,0.1,1.4,0.7,1.9,0.7s1.7-0.6,1.9-0.7c1.4-0.7,3.5-1.1,6.1-1.1
		c1.2,0,2.2,0.1,2.9,0.1c0.1,0,0.1,0,0.2-0.1c0,0,0.1-0.1,0.1-0.2V2.3C22.2,2.2,22.2,2.1,22.2,2.1z"/>
	<path fill="#B3B3B3" d="M11.9,14.7c0,0,0.1,0,0.1,0c0,0,0.1,0,0.1,0c1.6-0.6,3.8-1,6.3-1.1c0.1,0,0.2-0.1,0.2-0.2V0.2
		c0-0.1,0-0.1-0.1-0.2c-0.1,0-0.1,0-0.2,0l-6.4,2.5c-0.1,0-0.1,0.1-0.1,0.2l0,11.8C11.8,14.5,11.8,14.6,11.9,14.7z"/>
</g>
</svg>
