<?xml version="1.0" encoding="utf-8"?>
<!-- Generator: Adobe Illustrator 18.1.0, SVG Export Plug-In . SVG Version: 6.00 Build 0)  -->
<svg version="1.1" id="Layer_1" xmlns="http://www.w3.org/2000/svg" xmlns:xlink="http://www.w3.org/1999/xlink" x="0px" y="0px"
	 viewBox="0 0 15.4 15.4" enable-background="new 0 0 15.4 15.4" xml:space="preserve">
<g>
	<path fill="#B3B3B3" d="M10.3,11.9c-3.7,2.3-7.3,0.8-8.9-1.4c-2-2.6-1.8-6.1,0.5-8.5c2.1-2.3,5.7-2.6,8.4-0.9
		c2.9,2,3.5,5.2,1.7,9.2c1,0.9,2,1.9,2.9,2.9c0.7,0.7,0.8,1.3,0.2,1.8c-0.5,0.6-1.1,0.5-1.8-0.2C12.2,13.9,11.3,12.9,10.3,11.9z
		 M2.3,6.4c0,2.4,1.8,4.2,4.1,4.2c2.4,0,4.2-1.8,4.2-4.2c0-2.3-1.8-4.1-4.2-4.1C4.2,2.3,2.3,4.1,2.3,6.4z"/>
</g>
</svg>
