<?xml version="1.0" encoding="utf-8"?>
<!-- Generator: Adobe Illustrator 18.0.0, SVG Export Plug-In . SVG Version: 6.00 Build 0)  -->
<!DOCTYPE svg PUBLIC "-//W3C//DTD SVG 1.1//EN" "http://www.w3.org/Graphics/SVG/1.1/DTD/svg11.dtd">
<svg version="1.1" id="Layer_1" xmlns="http://www.w3.org/2000/svg" xmlns:xlink="http://www.w3.org/1999/xlink" x="0px" y="0px"
	 viewBox="0 0 125 125" enable-background="new 0 0 125 125" xml:space="preserve">
<g>
	<circle fill="#EDAF24" cx="62.5" cy="62.5" r="62.5"/>
	<g>
		<path fill="#FFFFFF" d="M92.6,41.1C92,40.4,91.1,40,90.2,40H45.8l-0.6-3.8c-0.3-1.6-1.6-2.7-3.2-2.7h-7.2c-1.8,0-3.2,1.4-3.2,3.2
			c0,1.8,1.4,3.2,3.2,3.2h4.5l6,35.9c0,0.1,0.1,0.3,0.1,0.4c0.1,0.2,0.1,0.3,0.2,0.5c0.1,0.2,0.3,0.4,0.4,0.6
			c0.1,0.1,0.2,0.2,0.3,0.4c0.2,0.2,0.4,0.3,0.6,0.4c0.1,0.1,0.2,0.2,0.4,0.2c0.4,0.1,0.8,0.2,1.2,0.2h35.3c1.8,0,3.2-1.4,3.2-3.2
			c0-1.8-1.4-3.2-3.2-3.2H51.2l-0.5-3.2H87c1.6,0,2.9-1.2,3.2-2.8l3.2-22.5C93.5,42.8,93.2,41.8,92.6,41.1L92.6,41.1z M86.5,46.4
			l-0.9,6.4H74.2v-6.4H86.5z M70.9,46.4v6.4h-9.6v-6.4H70.9z M70.9,56.1v6.4h-9.6v-6.4H70.9z M58.1,46.4v6.4h-9.6
			c-0.2,0-0.3,0-0.5,0.1l-1.1-6.5H58.1z M48.5,56.1h9.6v6.4h-8.5L48.5,56.1z M74.2,62.5v-6.4h11l-0.9,6.4H74.2z M74.2,62.5"/>
		<path fill="#FFFFFF" d="M58.1,86.6c0,2.7-2.2,4.8-4.8,4.8c-2.7,0-4.8-2.1-4.8-4.8c0-2.7,2.2-4.8,4.8-4.8
			C55.9,81.8,58.1,83.9,58.1,86.6L58.1,86.6z M58.1,86.6"/>
		<path fill="#FFFFFF" d="M87,86.6c0,2.7-2.2,4.8-4.8,4.8c-2.7,0-4.8-2.1-4.8-4.8c0-2.7,2.2-4.8,4.8-4.8C84.8,81.8,87,83.9,87,86.6
			L87,86.6z M87,86.6"/>
	</g>
</g>
</svg>
