<?xml version="1.0" encoding="utf-8"?>
<!-- Generator: Adobe Illustrator 18.1.0, SVG Export Plug-In . SVG Version: 6.00 Build 0)  -->
<svg version="1.1" id="Layer_1" xmlns="http://www.w3.org/2000/svg" xmlns:xlink="http://www.w3.org/1999/xlink" x="0px" y="0px"
	 viewBox="0 0 23.5 19.9" enable-background="new 0 0 23.5 19.9" xml:space="preserve">
<g>
	<g>
		<path fill="#B3B3B3" d="M17.2,2.2C18.2,2.3,19,3,19,4c0,0.9-0.8,1.7-1.7,1.7c0,0-0.1,0-0.1,0c-0.3-0.9-0.8-1.7-1.5-2.4
			C15.9,2.7,16.5,2.3,17.2,2.2 M6.3,2.3c0.8,0,1.5,0.5,1.7,1.3c-0.6,0.6-1,1.3-1.2,2.1c-0.1,0-0.3,0.1-0.4,0.1c-1,0-1.7-0.8-1.7-1.7
			C4.5,3,5.3,2.3,6.3,2.3 M11.9,5.6c1,0,1.7,0.8,1.7,1.7c0,0.9-0.8,1.7-1.7,1.7c-1,0-1.7-0.8-1.7-1.7C10.2,6.3,11,5.6,11.9,5.6
			 M18.6,8.9c1.5,0,2.6,1.2,2.6,2.6v2.3c-0.4,0.1-0.9,0.3-1.6,0.4c-0.2-1.9-1.2-3.6-2.7-4.6c0.1-0.2,0.2-0.4,0.3-0.7H18.6 M6.7,8.9
			c0.1,0.2,0.2,0.5,0.3,0.7c-1.5,1-2.5,2.7-2.7,4.6c-0.6-0.1-1.3-0.2-1.9-0.4v-2.2c0-1.4,1.2-2.6,2.6-2.6H6.7 M13.3,12.2
			c0.7,0,1.4,0.3,1.9,0.8c0.5,0.5,0.8,1.1,0.8,1.8v2.3c-0.7,0.2-1.9,0.5-3.6,0.5c-1.4,0-2.9-0.2-4.4-0.6v-2.2c0-1.4,1.2-2.6,2.6-2.6
			H13.3 M17.2,0.7c-1.8,0-3.2,1.4-3.2,3.2c1,0.6,1.7,1.7,1.9,2.9c0.4,0.2,0.9,0.3,1.4,0.3c1.8,0,3.2-1.4,3.2-3.2
			C20.5,2.2,19,0.7,17.2,0.7L17.2,0.7z M6.3,0.8C4.5,0.8,3,2.2,3,4c0,1.8,1.4,3.2,3.2,3.2C6.9,7.2,7.5,7,8,6.7
			c0.2-1,0.7-1.9,1.5-2.5c0-0.1,0-0.1,0-0.2C9.5,2.2,8,0.8,6.3,0.8L6.3,0.8z M11.9,4.1c-1.8,0-3.2,1.4-3.2,3.2
			c0,1.8,1.4,3.2,3.2,3.2s3.2-1.4,3.2-3.2C15.1,5.5,13.7,4.1,11.9,4.1L11.9,4.1z M18.6,7.4h-2.7c0,1.1-0.5,2.1-1.2,2.7
			c2,0.6,3.5,2.5,3.5,4.7v1c2.7-0.1,4.2-0.9,4.3-0.9l0.2-0.1h0v-3.3C22.7,9.2,20.9,7.4,18.6,7.4L18.6,7.4z M7.6,7.4H4.9
			c-2.3,0-4.1,1.8-4.1,4.1v3.3l0,0.1L1,14.9c1.7,0.5,3.3,0.8,4.7,0.9v-1c0-2.2,1.5-4.1,3.5-4.7C8.4,9.4,8,8.5,7.9,7.4
			C7.8,7.4,7.7,7.4,7.6,7.4L7.6,7.4z M13.3,10.7h-2.7c-2.3,0-4.1,1.8-4.1,4.1v3.3l0,0.1l0.2,0.1c2.2,0.7,4.1,0.9,5.6,0.9
			c3,0,4.8-0.9,4.9-0.9l0.2-0.1h0v-3.3C17.4,12.5,15.6,10.7,13.3,10.7L13.3,10.7z"/>
	</g>
</g>
</svg>
