<?xml version="1.0" encoding="utf-8"?>
<!-- Generator: Adobe Illustrator 18.0.0, SVG Export Plug-In . SVG Version: 6.00 Build 0)  -->
<!DOCTYPE svg PUBLIC "-//W3C//DTD SVG 1.1//EN" "http://www.w3.org/Graphics/SVG/1.1/DTD/svg11.dtd">
<svg version="1.1" id="Layer_1" xmlns="http://www.w3.org/2000/svg" xmlns:xlink="http://www.w3.org/1999/xlink" x="0px" y="0px"
	 viewBox="0 0 125 125" enable-background="new 0 0 125 125" xml:space="preserve">
<g>
	<circle fill="#69B77D" cx="62.5" cy="62.5" r="62.5"/>
	<path fill="#FFFFFF" d="M98.2,75.4l-0.6-1.9c-0.4-1-1.5-1.9-2.5-1.9h-2.2c-1.4-3.9-2.8-7.3-3.2-8.4c-0.9-1.9-3.6-2.4-5.1-2.8
		c0,0-2.5-0.8-10.9-0.8c-8.4,0-10.9,0.8-10.9,0.8c-1.8,0.6-4.2,1-5.2,2.9c-0.4,0.8-1.8,4.3-3.2,8.3h-2.2c-1,0-2.2,0.8-2.5,1.9
		L49,75.4c-0.4,1,0.2,2.2,1.2,2.2h2.2c-0.6,1.7-1,2.5-1,2.5c-0.2,0.3-0.3,1.5-0.3,1.9v14c0,1,0.8,1.9,1.9,1.9h5.2
		c1,0,1.9-0.8,1.9-1.9v-2.6h27V96c0,1,0.8,1.9,1.9,1.9h5.2c1,0,1.9-0.8,1.9-1.9V82c0-0.3-0.1-1.6-0.3-1.9c0,0-0.4-0.8-1-2.5h2.1
		C98,77.6,98.5,76.4,98.2,75.4L98.2,75.4z M62.6,86.6h-2.5c-2.2,0-4.4-0.3-4.4-1.9v-1.9c0-1.8,1-1.9,2-1.9c1,0,3,0.9,4.3,1.6
		c1.4,0.7,3,1.3,3,2.5C65,86.1,64.4,86.6,62.6,86.6L62.6,86.6z M57.4,73.7c1.3-5.2,2.7-7.2,3.1-8c0.3-0.6,0.5-2.4,13.2-2.4
		c12.7,0,13,2.1,13,2.1c0.4,1.1,1.9,3.5,3.2,8.3c0,0-5.4,1.7-16.2,1.7C62.8,75.4,57.4,73.7,57.4,73.7L57.4,73.7z M91.6,84.8
		c0,1.5-2.2,1.9-4.4,1.9h-2.5c-1.9,0-2.4-0.5-2.4-1.6c0-1.2,1.6-1.8,3-2.5c1.3-0.6,3.3-1.6,4.3-1.6c1,0,2,0.1,2,1.9V84.8z
		 M52.2,68.7c1.1-3,2.2-5.8,2.7-6.6c1.4-2.7,4.2-3.5,6-4.1c0.3-0.1,0.6-0.2,0.9-0.3c0.6-0.2,3.5-0.9,11.9-0.9c0.1,0,0.1,0,0.2,0
		c0-0.1,0-0.1-0.1-0.2h2.1c1,0,1.6-1.2,1.2-2.2l-0.6-1.9c-0.4-1-1.5-1.9-2.5-1.9h-2.2c-1.4-3.9-2.8-7.3-3.2-8.4
		c-0.9-1.9-3.6-2.4-5.1-2.8c0,0-2.5-0.8-10.9-0.8c-8.4,0-10.9,0.8-10.9,0.8c-1.8,0.6-4.2,1-5.2,2.9c-0.4,0.8-1.8,4.3-3.2,8.3h-2.2
		c-1,0-2.2,0.8-2.5,1.9l-0.6,1.9c-0.4,1,0.2,2.2,1.2,2.2h2.2c-0.6,1.7-1,2.5-1,2.5c-0.2,0.3-0.3,1.5-0.3,1.9v14c0,1,0.8,1.9,1.9,1.9
		h5.2c1,0,1.9-0.8,1.9-1.9v-2.6h7.9C47.8,70.2,49.9,68.7,52.2,68.7L52.2,68.7z M41.5,65.6H39c-2.2,0-4.4-0.3-4.4-1.9v-1.9
		c0-1.8,1-1.9,2-1.9c1,0,3,0.9,4.3,1.6c1.4,0.7,3,1.3,3,2.5C43.9,65.1,43.4,65.6,41.5,65.6L41.5,65.6z M36.3,52.6
		c1.3-5.2,2.7-7.2,3.1-8c0.3-0.6,0.5-2.4,13.2-2.4c12.7,0,13,2.1,13,2.1c0.4,1.1,1.9,3.5,3.2,8.3c0,0-5.4,1.7-16.2,1.7
		C41.7,54.3,36.3,52.6,36.3,52.6L36.3,52.6z M60.4,32.6c0.3-0.6,0.5-2.4,13.2-2.4c12.7,0,13,2.1,13,2.1c0.4,1.1,1.9,3.5,3.2,8.3
		c0,0-5.4,1.7-16.2,1.7c-0.6,0-1.2,0-1.8,0c0.5,1.2,1.3,3.1,2.1,5.3H74c2.3,0,4.6,1.6,5.4,3.9l0.6,1.9c0.4,1.2,0.3,2.5-0.1,3.6
		c3.7,0.2,5.2,0.6,5.6,0.7l0.6,0.1c1.9,0.5,5.1,1.3,6.4,4.3c0.2,0.4,0.6,1.4,1.1,2.6h0.7c1,0,1.9-0.8,1.9-1.9v-14
		c0-0.3-0.1-1.6-0.3-1.9c0,0-0.4-0.8-1-2.5h2.1c1,0,1.6-1.2,1.2-2.2l-0.6-1.9c-0.4-1-1.5-1.9-2.5-1.9h-2.2c-1.4-3.9-2.8-7.3-3.2-8.4
		c-0.9-1.9-3.6-2.4-5.1-2.8c0,0-2.5-0.8-10.9-0.8c-8.4,0-10.9,0.8-10.9,0.8c-1.8,0.6-4.2,1-5.2,2.9c-0.3,0.6-1.2,2.7-2.2,5.4
		c1.4,0,2.5,0.1,3.5,0.2C59.6,34,60.2,33.1,60.4,32.6L60.4,32.6z M91.6,49.8v1.9c0,1.5-2.2,1.9-4.4,1.9h-2.5c-1.9,0-2.4-0.5-2.4-1.6
		c0-1.2,1.6-1.8,3-2.5c1.3-0.6,3.3-1.6,4.3-1.6C90.6,47.9,91.6,48,91.6,49.8L91.6,49.8z M91.6,49.8"/>
</g>
</svg>
