<?xml version="1.0" encoding="utf-8"?>
<!-- Generator: Adobe Illustrator 18.0.0, SVG Export Plug-In . SVG Version: 6.00 Build 0)  -->
<!DOCTYPE svg PUBLIC "-//W3C//DTD SVG 1.1//EN" "http://www.w3.org/Graphics/SVG/1.1/DTD/svg11.dtd">
<svg version="1.1" id="Layer_1" xmlns="http://www.w3.org/2000/svg" xmlns:xlink="http://www.w3.org/1999/xlink" x="0px" y="0px"
	 width="36.653px" height="36.653px" viewBox="0 0 36.653 36.653" enable-background="new 0 0 36.653 36.653" xml:space="preserve">
<g>
	<circle fill="#333333" cx="18.313" cy="17.795" r="16.312"/>
	<g>
		<path fill="#EFC94C" d="M18.319,0C8.209,0,0,8.209,0,18.319c0,10.125,8.209,18.334,18.319,18.334
			c10.125,0,18.334-8.209,18.334-18.334C36.653,8.198,28.444,0,18.319,0L18.319,0z M27.447,14.216l0.011,0.581
			c0,5.961-4.541,12.839-12.842,12.839c-2.548,0-4.919-0.747-6.912-2.036c0.346,0.046,0.707,0.069,1.074,0.069
			c2.116,0,4.06-0.727,5.604-1.936c-1.979-0.034-3.634-1.343-4.215-3.133c0.278,0.057,0.558,0.08,0.85,0.08
			c0.412,0,0.816-0.057,1.185-0.157c-2.059-0.415-3.613-2.236-3.613-4.418v-0.057c0.604,0.338,1.297,0.538,2.036,0.561
			c-1.208-0.805-2.001-2.193-2.001-3.748c0-0.827,0.223-1.609,0.616-2.271c2.213,2.729,5.546,4.518,9.294,4.71
			c-0.08-0.326-0.112-0.673-0.112-1.031c0-2.482,2.013-4.507,4.507-4.507c1.297,0,2.471,0.55,3.298,1.42
			c1.019-0.2,1.99-0.57,2.863-1.085c-0.335,1.054-1.051,1.936-1.99,2.494c0.916-0.112,1.789-0.358,2.594-0.716
			C29.091,12.785,28.321,13.578,27.447,14.216L27.447,14.216z M27.447,14.216"/>
	</g>
</g>
<g>
</g>
<g>
</g>
<g>
</g>
<g>
</g>
<g>
</g>
<g>
</g>
<g>
</g>
<g>
</g>
<g>
</g>
<g>
</g>
<g>
</g>
<g>
</g>
<g>
</g>
<g>
</g>
<g>
</g>
</svg>
