<?xml version="1.0" encoding="utf-8"?>
<!-- Generator: Adobe Illustrator 18.1.0, SVG Export Plug-In . SVG Version: 6.00 Build 0)  -->
<svg version="1.1" id="Layer_1" xmlns="http://www.w3.org/2000/svg" xmlns:xlink="http://www.w3.org/1999/xlink" x="0px" y="0px"
	 viewBox="0 0 19.2 18" enable-background="new 0 0 19.2 18" xml:space="preserve">
<g>
	<path fill="#B3B3B3" d="M9.6,18c-1.4,0-2.9,0-4.3,0c-1.8,0-2.7-1-2.7-2.7c0-1.3,0.1-2.5,0.7-3.7c0.4-0.9,1.1-1.6,2.1-1.9
		c0.5-0.1,0.8,0,1.2,0.2c0.9,0.6,1.8,1.1,3,1.1c1,0,2-0.3,2.8-0.9c1.1-0.7,2.3-0.6,3.1,0.5c0.4,0.7,0.8,1.5,1,2.2
		c0.2,0.8,0.2,1.6,0.3,2.4c0,1.6-1,2.6-2.6,2.6C12.5,18,11.1,18,9.6,18z"/>
	<path fill="#B3B3B3" d="M13.4,6.4c0,2.1-1.7,3.8-3.8,3.8c-2.1,0-3.8-1.7-3.8-3.9c0-2.1,1.7-3.8,3.8-3.8C11.7,2.6,13.4,4.3,13.4,6.4
		z"/>
	<path fill="#B3B3B3" d="M13.3,9c0.6-1,0.9-2,0.8-3.1c1.4,0.4,2.6,0,3.8-0.6c0.2-0.1,0.6,0.1,0.7,0.2C18.8,5.8,19,6.2,19,6.6
		c0.1,0.6,0.1,1.2,0.2,1.8c0,1.2-0.5,1.8-1.7,1.9c-0.4,0-0.9,0-1.3,0c-0.1,0-0.3-0.1-0.4-0.1C15.2,9.4,14.3,9,13.3,9z"/>
	<path fill="#B3B3B3" d="M5.8,9C4.8,9,4,9.4,3.4,10.1c-0.1,0.1-0.2,0.2-0.2,0.2c-0.8,0-1.7,0.2-2.5-0.3C0.3,9.7,0,9.4,0,8.9
		C0,8,0.1,7.1,0.2,6.2c0-0.3,0.2-0.6,0.4-0.8c0.2-0.2,0.6-0.3,0.7-0.2c1.2,0.6,2.4,1,3.7,0.6C5,7,5.2,8,5.8,9z"/>
	<path fill="#B3B3B3" d="M6.3,2.6c0,1.4-1.1,2.6-2.5,2.6C2.4,5.1,1.3,4,1.3,2.6C1.3,1.1,2.4,0,3.8,0C5.2,0,6.3,1.1,6.3,2.6z"/>
	<path fill="#B3B3B3" d="M12.8,2.6C12.8,1.2,14,0,15.4,0c1.4,0,2.5,1.1,2.6,2.5c0,1.4-1.1,2.6-2.5,2.6C14,5.1,12.8,4,12.8,2.6z"/>
</g>
</svg>
